<svg width="375" height="24" viewBox="0 0 375 24" fill="none" xmlns="http://www.w3.org/2000/svg">
<path d="M3.45881 12C3.45881 16.7759 5.77778 20.6689 10.2978 20.6689C13.0098 20.6689 14.7785 18.9833 16.4293 16.2542L19.1413 18.3813C17.0189 22.0736 14.3462 24 10.3371 24C4.44142 24 0 19.0234 0 12C0 4.97659 4.44142 0 10.3371 0C14.3462 0 17.0189 1.92642 19.1413 5.61873L16.4293 7.74582C14.7785 5.01672 13.0098 3.29097 10.2978 3.29097C5.77778 3.29097 3.45881 7.18395 3.45881 12Z" fill="#FBF7F1"/>
<path d="M28.1522 14.3278V23.4381H24.8506V0.561873H33.6156C39.3934 0.561873 42.577 3.01003 42.577 7.46488C42.577 10.8763 40.7297 13.0836 37.2709 13.9264V14.7692L43.4417 23.4381H39.472L33.0653 14.3278H28.1522ZM33.537 3.65217H29.2135L28.1522 4.73579V11.1973H33.537C37.3888 11.1973 39.1968 9.83278 39.1968 7.46488C39.1968 5.01672 37.3888 3.65217 33.537 3.65217Z" fill="#FBF7F1"/>
<path d="M56.9333 20.8294C60.117 20.8294 62.5539 18.5017 62.5539 14.8495V0.561873H65.8555V15.291C65.8555 20.5485 61.8857 24 56.9333 24C51.981 24 48.0112 20.5485 48.0112 15.291V0.561873H51.3128V14.8495C51.3128 18.5017 53.7497 20.8294 56.9333 20.8294Z" fill="#FBF7F1"/>
<path d="M74.7092 12C74.7092 16.7759 77.0281 20.6689 81.5482 20.6689C84.2602 20.6689 86.0289 18.9833 87.6797 16.2542L90.3917 18.3813C88.2692 22.0736 85.5965 24 81.5875 24C75.6918 24 71.2504 19.0234 71.2504 12C71.2504 4.97659 75.6918 0 81.5875 0C85.5965 0 88.2692 1.92642 90.3917 5.61873L87.6797 7.74582C86.0289 5.01672 84.2602 3.29097 81.5482 3.29097C77.0281 3.29097 74.7092 7.18395 74.7092 12Z" fill="#FBF7F1"/>
<path d="M106.084 19.2642L107.106 20.3077H112.491V23.4381H96.4154V20.3077H101.761L102.822 19.2642V4.73579L101.761 3.65217H96.4154V0.561873H112.491V3.65217H107.106L106.084 4.73579V19.2642Z" fill="#FBF7F1"/>
<path d="M136.791 6.78261C136.791 8.50836 135.927 10.0736 134.276 10.9164V11.6789C136.241 12.4415 137.774 14.4482 137.774 16.7358C137.774 21.1505 134.669 23.4381 128.773 23.4381H120.323V0.561873H128.341C133.883 0.561873 136.791 2.76923 136.791 6.78261ZM124.607 3.49164L123.585 4.53512V10.1538H128.223C131.918 10.1538 133.529 8.9097 133.529 6.78261C133.529 4.69565 131.918 3.49164 128.223 3.49164H124.607ZM123.585 19.4248L124.607 20.5084H128.695C132.743 20.5084 134.512 19.1037 134.512 16.7358C134.512 14.3679 132.743 12.9632 128.695 12.9632H123.585V19.4248Z" fill="#FBF7F1"/>
<path d="M147.807 19.2241L148.829 20.3077H160.659V23.4381H144.505V0.561873H147.807V19.2241Z" fill="#FBF7F1"/>
<path d="M170.849 19.2241L171.871 20.3077H184.881V23.4381H167.548V0.561873H184.488V3.69231H171.871L170.849 4.73579V10.0736H182.759V13.204H170.849V19.2241Z" fill="#FBF7F1"/>
<path d="M225.385 16.6154H220.983L217.76 4.53512H216.935V23.4381H213.712V0.561873H219.883L222.87 12.3211H223.617L226.918 0.561873H232.657V23.4381H229.434V4.53512H228.647L225.385 16.6154Z" fill="#FBF7F1"/>
<path d="M257.075 12C257.075 18.7023 253.144 24 246.934 24C240.763 24 236.833 18.7023 236.833 12C236.833 5.25753 240.763 0 246.934 0C253.144 0 257.075 5.25753 257.075 12ZM253.616 12C253.616 7.14381 251.376 3.17057 246.934 3.17057C242.493 3.17057 240.292 7.14381 240.292 12C240.292 16.8562 242.493 20.7893 246.934 20.7893C251.376 20.7893 253.616 16.8562 253.616 12Z" fill="#FBF7F1"/>
<path d="M272.885 16.6154H268.483L265.26 4.53512H264.435V23.4381H261.212V0.561873H267.383L270.37 12.3211H271.117L274.418 0.561873H280.157V23.4381H276.934V4.53512H276.148L272.885 16.6154Z" fill="#FBF7F1"/>
<path d="M289.6 19.2241L290.622 20.3077H303.632V23.4381H286.298V0.561873H303.239V3.69231H290.622L289.6 4.73579V10.0736H301.509V13.204H289.6V19.2241Z" fill="#FBF7F1"/>
<path d="M327.146 23.4381H323.334L313.35 5.73913H312.328V23.4381H309.223V0.561873H313.783L323.019 17.097H324.041V0.561873H327.146V23.4381Z" fill="#FBF7F1"/>
<path d="M344.686 3.69231L343.625 4.73579V23.4381H340.245V4.73579L339.223 3.69231H331.676V0.561873H352.193V3.69231H344.686Z" fill="#FBF7F1"/>
<path d="M365.999 20.8294C369.144 20.8294 371.698 19.5452 371.698 17.1371C371.698 15.1706 370.323 14.3679 368.593 13.9264L363.091 12.5619C359.396 11.6789 356.881 10.1538 356.881 6.58194C356.881 2.7291 360.379 0 365.41 0C368.947 0 372.091 1.28428 374.646 3.49164L372.563 6.14047C370.283 4.05351 367.689 3.13043 365.174 3.13043C362.147 3.13043 360.182 4.33445 360.182 6.38127C360.182 8.14716 361.636 8.7893 363.759 9.31104L369.262 10.7559C372.563 11.5987 375 13.4448 375 16.8963C375 21.1104 371.266 24 365.999 24C361.912 24 357.981 22.6756 355.544 20.3478L357.509 17.4582C359.75 19.5853 362.816 20.8294 365.999 20.8294Z" fill="#FBF7F1"/>
</svg>
