<svg width="1386" height="485" viewBox="0 0 1386 485" fill="none" xmlns="http://www.w3.org/2000/svg">
<line x1="20" y1="1" x2="20" y2="39" stroke="#000" strokeWidth="2"/>
<line x1="38" y1="21" x2="-8.74228e-08" y2="21" stroke="#000" strokeWidth="2"/>
<line x1="20" y1="447" x2="20" y2="485" stroke="#000" strokeWidth="2"/>
<line x1="38" y1="467" x2="-8.74228e-08" y2="467" stroke="#000" strokeWidth="2"/>
<line x1="1368" y1="4.37112e-08" x2="1368" y2="38" stroke="#000" strokeWidth="2"/>
<line x1="1386" y1="20" x2="1348" y2="20" stroke="#000" strokeWidth="2"/>
<line x1="1368" y1="446" x2="1368" y2="484" stroke="#000" strokeWidth="2"/>
<line x1="1386" y1="466" x2="1348" y2="466" stroke="#000" strokeWidth="2"/>
<path d="M405.368 177C405.368 196.502 415.001 212.398 433.777 212.398C445.043 212.398 452.39 205.515 459.248 194.371L470.514 203.057C461.697 218.134 450.594 226 433.941 226C409.45 226 391 205.679 391 177C391 148.321 409.45 128 433.941 128C450.594 128 461.697 135.866 470.514 150.943L459.248 159.629C452.39 148.485 445.043 141.438 433.777 141.438C415.001 141.438 405.368 157.334 405.368 177Z" fill="#000"/>
<path d="M507.945 186.505V223.706H494.23V130.294H530.64C554.641 130.294 567.866 140.291 567.866 158.482C567.866 172.411 560.192 181.425 545.824 184.866V188.308L571.458 223.706H554.967L528.354 186.505H507.945ZM530.313 142.913H512.353L507.945 147.338V173.722H530.313C546.314 173.722 553.824 168.151 553.824 158.482C553.824 148.485 546.314 142.913 530.313 142.913Z" fill="#000"/>
<path d="M627.502 213.054C640.727 213.054 650.85 203.548 650.85 188.635V130.294H664.565V190.438C664.565 211.906 648.074 226 627.502 226C606.93 226 590.439 211.906 590.439 190.438V130.294H604.154V188.635C604.154 203.548 614.277 213.054 627.502 213.054Z" fill="#000"/>
<path d="M701.343 177C701.343 196.502 710.976 212.398 729.753 212.398C741.018 212.398 748.366 205.515 755.223 194.371L766.489 203.057C757.672 218.134 746.57 226 729.916 226C705.425 226 686.975 205.679 686.975 177C686.975 148.321 705.425 128 729.916 128C746.57 128 757.672 135.866 766.489 150.943L755.223 159.629C748.366 148.485 741.018 141.438 729.753 141.438C710.976 141.438 701.343 157.334 701.343 177Z" fill="#000"/>
<path d="M831.677 206.662L835.922 210.923H858.29V223.706H791.512V210.923H813.717L818.125 206.662V147.338L813.717 142.913H791.512V130.294H858.29V142.913H835.922L831.677 147.338V206.662Z" fill="#000"/>
<path d="M959.234 155.696C959.234 162.742 955.642 169.134 948.785 172.575V175.689C956.948 178.803 963.316 186.997 963.316 196.338C963.316 214.365 950.417 223.706 925.927 223.706H890.823V130.294H924.131C947.152 130.294 959.234 139.308 959.234 155.696ZM908.62 142.258L904.375 146.518V169.462H923.641C938.988 169.462 945.682 164.381 945.682 155.696C945.682 147.174 938.988 142.258 923.641 142.258H908.62ZM904.375 207.318L908.62 211.742H925.6C942.417 211.742 949.764 206.007 949.764 196.338C949.764 186.669 942.417 180.933 925.6 180.933H904.375V207.318Z" fill="#000"/>
<path d="M1004.99 206.498L1009.24 210.923H1058.38V223.706H991.278V130.294H1004.99V206.498Z" fill="#000"/>
<path d="M1100.71 206.498L1104.96 210.923H1159V223.706H1087V130.294H1157.37V143.077H1104.96L1100.71 147.338V169.134H1150.18V181.916H1100.71V206.498Z" fill="#000"/>
<path d="M234.637 325.231H216.296L202.867 274.896H199.428V353.659H186V258.341H211.71L224.156 307.338H227.268L241.024 258.341H264.933V353.659H251.504V274.896H248.229L234.637 325.231Z" fill="#000"/>
<path d="M366.67 306C366.67 333.926 350.294 356 324.42 356C298.71 356 282.334 333.926 282.334 306C282.334 277.906 298.71 256 324.42 256C350.294 256 366.67 277.906 366.67 306ZM352.259 306C352.259 285.766 342.925 269.211 324.42 269.211C305.915 269.211 296.745 285.766 296.745 306C296.745 326.234 305.915 342.622 324.42 342.622C342.925 342.622 352.259 326.234 352.259 306Z" fill="#000"/>
<path d="M432.544 325.231H414.203L400.775 274.896H397.336V353.659H383.907V258.341H409.618L422.064 307.338H425.175L438.931 258.341H462.84V353.659H449.412V274.896H446.137L432.544 325.231Z" fill="#000"/>
<path d="M502.185 336.1L506.443 340.615H560.648V353.659H488.429V258.341H559.01V271.385H506.443L502.185 275.732V297.973H551.805V311.017H502.185V336.1Z" fill="#000"/>
<path d="M658.619 353.659H642.734L601.139 279.913H596.881V353.659H583.944V258.341H602.94L641.424 327.237H645.682V258.341H658.619V353.659Z" fill="#000"/>
<path d="M731.698 271.385L727.277 275.732V353.659H713.193V275.732L708.935 271.385H677.493V258.341H762.977V271.385H731.698Z" fill="#000"/>
<path d="M820.499 342.789C833.6 342.789 844.244 337.438 844.244 327.405C844.244 319.211 838.513 315.866 831.307 314.027L808.38 308.341C792.987 304.662 782.506 298.308 782.506 283.425C782.506 267.371 797.081 256 818.042 256C832.781 256 845.882 261.351 856.526 270.549L847.847 281.585C838.349 272.89 827.541 269.043 817.06 269.043C804.45 269.043 796.262 274.06 796.262 282.589C796.262 289.946 802.321 292.622 811.164 294.796L834.091 300.816C847.847 304.328 858 312.02 858 326.401C858 343.96 842.443 356 820.499 356C803.468 356 787.092 350.482 776.938 340.783L785.126 328.742C794.461 337.605 807.234 342.789 820.499 342.789Z" fill="#000"/>
<path d="M684.773 417.583L681.355 411.743C682.954 408.72 682.954 405.177 682.954 400.507C682.954 394.644 682.954 390.367 679.536 386.801C677.183 384.285 674.161 383.023 670.21 383.023C668.477 382.982 666.753 383.297 665.148 383.948C663.544 384.6 662.092 385.574 660.884 386.809C657.466 390.201 657.466 394.478 657.466 400.515C657.466 406.37 657.291 410.647 660.884 414.213C662.08 415.464 663.53 416.447 665.137 417.098C666.745 417.75 668.474 418.054 670.21 417.991C671.181 417.969 672.147 417.853 673.095 417.644L684.773 417.583ZM665.741 410.088C664.5 408.675 664.143 407.066 664.143 400.484C664.143 393.903 664.5 392.286 665.741 390.874C666.307 390.312 666.979 389.866 667.718 389.561C668.457 389.257 669.25 389.101 670.05 389.101C670.85 389.101 671.643 389.257 672.382 389.561C673.122 389.866 673.793 390.312 674.359 390.874C675.6 392.286 675.958 393.896 675.958 400.484C675.958 407.073 675.6 408.675 674.359 410.088C673.806 410.666 673.136 411.121 672.394 411.425C671.651 411.728 670.853 411.873 670.05 411.848C669.248 411.868 668.451 411.721 667.709 411.418C666.967 411.115 666.297 410.662 665.741 410.088Z" fill="#000"/>
<path d="M763.495 383.387H770.11V417.584H763.495V383.387Z" fill="#000"/>
<path d="M603.123 417.931C597.924 417.931 593.988 416.874 590.555 413.481L594.863 409.204C596.995 411.32 600.055 412.076 603.123 412.076C607.074 412.076 609.214 410.663 609.214 407.799C609.237 407.276 609.155 406.753 608.97 406.262C608.786 405.772 608.503 405.323 608.14 404.943C607.425 404.233 606.717 404.059 605.095 403.704L600.969 403.175C598.503 402.984 596.175 401.972 594.361 400.304C593.504 399.395 592.839 398.325 592.403 397.157C591.968 395.99 591.772 394.747 591.826 393.504C591.796 387.482 596.279 383.205 603.831 383.205C608.49 383.205 612.091 384.263 614.976 387.127L610.668 391.229C608.536 389.114 605.826 388.895 603.656 388.895C600.055 388.895 598.282 390.829 598.282 393.164C598.294 394.108 598.676 395.01 599.347 395.68C600.055 396.382 601.121 396.737 602.59 397.093L606.717 397.621C609.96 397.969 611.908 398.853 613.332 400.304C614.252 401.282 614.965 402.433 615.43 403.689C615.896 404.945 616.104 406.281 616.042 407.618C616.042 414.184 610.31 417.931 603.1 417.931" fill="#000"/>
<path d="M625.718 417.584V383.387H648.495V389.242H632.508V397.267H646.128V403.349H632.516V411.743H648.503V417.607H625.718" fill="#000"/>
<path d="M705.73 417.932C698.718 417.932 692.986 413.134 692.986 405.842V383.387H699.837V405.638C699.837 409.56 702.197 411.849 705.745 411.849C709.292 411.849 711.652 409.514 711.652 405.638V383.387H718.268V405.812C718.313 413.134 712.764 417.901 705.745 417.901" fill="#000"/>
<path d="M750.217 414.184C747.865 416.7 744.843 417.962 740.892 417.962C739.16 418.007 737.437 417.694 735.833 417.044C734.229 416.393 732.779 415.42 731.574 414.184C728.148 410.792 728.148 406.523 728.148 400.485C728.148 394.622 727.973 390.346 731.574 386.779C733.926 384.263 736.902 383.001 740.892 383.001C742.622 382.975 744.34 383.297 745.943 383.946C747.545 384.595 748.999 385.559 750.217 386.779C753.635 390.172 753.635 394.448 753.635 400.485C753.635 406.341 753.635 410.618 750.217 414.184ZM745.2 390.875C744.058 389.742 742.51 389.106 740.895 389.106C739.281 389.106 737.732 389.742 736.59 390.875C735.342 392.287 734.992 393.897 734.992 400.485C734.992 407.074 735.342 408.676 736.59 410.089C737.732 411.222 739.281 411.858 740.895 411.858C742.51 411.858 744.058 411.222 745.2 410.089C746.441 408.676 746.799 407.067 746.799 400.485C746.799 393.904 746.487 392.287 745.2 390.875Z" fill="#000"/>
<path d="M801.896 417.584L799.94 411.539H787.721L785.59 417.584H778.586L791.155 383.387H796.346L808.915 417.584H801.896ZM793.811 393.345L789.503 405.812H798.113L793.811 393.345Z" fill="#000"/>
<path d="M848.39 383.387H857V391.932H848.39V383.387Z" fill="#000"/>
<path d="M826.853 410.232V383.387H822.544V414.539L826.853 410.232Z" fill="#000"/>
<path d="M829.868 413.307L825.566 417.583H856.954V413.307H829.868Z" fill="#000"/>
<path d="M835.466 401.717V383.387H831.165V405.994L835.466 401.717Z" fill="#000"/>
<path d="M838.485 404.756L834.161 409.032H856.938V404.756H838.485Z" fill="#000"/>
<path d="M844.062 393.164V383.387H839.753V397.44L844.062 393.164Z" fill="#000"/>
<path d="M847.103 396.209L842.802 400.485H856.962V396.209H847.103Z" fill="#000"/>
<path d="M896.494 308.879C895.942 308.879 895.494 309.327 895.494 309.879C895.494 310.431 895.942 310.879 896.494 310.879V308.879ZM1318.74 310.586C1319.13 310.195 1319.13 309.562 1318.74 309.172L1312.38 302.808C1311.99 302.417 1311.36 302.417 1310.96 302.808C1310.57 303.198 1310.57 303.832 1310.96 304.222L1316.62 309.879L1310.96 315.536C1310.57 315.926 1310.57 316.559 1310.96 316.95C1311.36 317.34 1311.99 317.34 1312.38 316.95L1318.74 310.586ZM896.494 310.879H1318.04V308.879H896.494V310.879Z" fill="#000"/>
<path d="M935.563 308.878C935.011 308.895 934.577 309.355 934.593 309.907C934.609 310.459 935.07 310.894 935.622 310.878L935.563 308.878ZM1345.97 179.751C1345.83 179.216 1345.29 178.894 1344.75 179.031L1336.03 181.271C1335.5 181.408 1335.18 181.953 1335.31 182.488C1335.45 183.023 1336 183.345 1336.53 183.208L1344.28 181.217L1346.27 188.966C1346.41 189.501 1346.95 189.823 1347.49 189.686C1348.02 189.548 1348.35 189.003 1348.21 188.468L1345.97 179.751ZM1000.9 310.421L1000.85 311.42L1000.88 311.421H1000.9V310.421ZM1210.25 338.417C1216.22 337.504 1222.78 334.288 1229.67 329.464C1236.57 324.63 1243.86 318.133 1251.29 310.563C1266.14 295.424 1281.6 275.92 1295.6 256.664C1309.61 237.404 1322.17 218.367 1331.23 204.146C1335.76 197.036 1339.42 191.128 1341.94 186.997C1343.2 184.932 1344.18 183.311 1344.85 182.206C1345.18 181.653 1345.43 181.229 1345.6 180.943C1345.69 180.801 1345.75 180.692 1345.8 180.619C1345.82 180.583 1345.83 180.555 1345.84 180.537C1345.85 180.528 1345.85 180.521 1345.86 180.516C1345.86 180.514 1345.86 180.512 1345.86 180.511C1345.86 180.51 1345.86 180.509 1345 180C1344.14 179.491 1344.14 179.492 1344.14 179.493C1344.14 179.494 1344.14 179.495 1344.14 179.498C1344.13 179.502 1344.13 179.509 1344.12 179.518C1344.11 179.536 1344.1 179.563 1344.08 179.599C1344.03 179.671 1343.97 179.778 1343.88 179.92C1343.72 180.204 1343.46 180.625 1343.13 181.176C1342.47 182.277 1341.5 183.894 1340.24 185.955C1337.72 190.076 1334.07 195.973 1329.54 203.072C1320.5 217.27 1307.96 236.271 1293.98 255.488C1280.01 274.71 1264.61 294.124 1249.86 309.162C1242.48 316.682 1235.29 323.087 1228.52 327.825C1221.74 332.573 1215.47 335.594 1209.95 336.44L1210.25 338.417ZM1070.86 330.652C1078.34 330.652 1084.63 327.71 1090.18 323.384C1095.72 319.072 1100.57 313.343 1105.18 307.702C1109.83 302.025 1114.21 296.458 1118.88 292.289C1123.53 288.132 1128.33 285.487 1133.78 285.487V283.487C1127.63 283.487 1122.37 286.487 1117.54 290.798C1112.73 295.098 1108.23 300.822 1103.64 306.436C1099.01 312.087 1094.29 317.649 1088.95 321.806C1083.64 325.948 1077.77 328.652 1070.86 328.652V330.652ZM1133.78 285.487C1139.11 285.487 1143.64 288.923 1148.26 294.393C1150.55 297.111 1152.82 300.275 1155.17 303.664C1157.52 307.041 1159.97 310.646 1162.59 314.19C1167.83 321.278 1173.85 328.24 1181.51 332.975C1189.2 337.73 1198.51 340.213 1210.25 338.417L1209.95 336.44C1198.69 338.162 1189.86 335.786 1182.56 331.274C1175.23 326.742 1169.39 320.028 1164.2 313.001C1161.6 309.488 1159.18 305.925 1156.82 302.522C1154.45 299.129 1152.14 295.898 1149.79 293.103C1145.1 287.547 1140.05 283.487 1133.78 283.487V285.487ZM935.592 309.878C935.622 310.878 935.622 310.878 935.622 310.878C935.622 310.878 935.622 310.878 935.623 310.878C935.624 310.877 935.626 310.877 935.628 310.877C935.632 310.877 935.638 310.877 935.646 310.877C935.663 310.876 935.688 310.876 935.72 310.875C935.786 310.873 935.885 310.87 936.015 310.867C936.275 310.86 936.66 310.85 937.161 310.837C938.164 310.813 939.632 310.779 941.49 310.744C945.206 310.674 950.481 310.596 956.717 310.566C969.191 310.508 985.498 310.644 1000.85 311.42L1000.95 309.422C985.547 308.644 969.198 308.508 956.707 308.566C950.46 308.596 945.176 308.674 941.452 308.744C939.59 308.78 938.119 308.813 937.112 308.838C936.609 308.85 936.222 308.86 935.961 308.867C935.83 308.871 935.731 308.874 935.664 308.876C935.631 308.876 935.606 308.877 935.589 308.878C935.58 308.878 935.574 308.878 935.57 308.878C935.567 308.878 935.566 308.878 935.565 308.878C935.564 308.878 935.564 308.878 935.563 308.878C935.563 308.878 935.563 308.878 935.592 309.878ZM1000.9 311.421C1017.59 311.421 1027.72 316.147 1037.34 320.932C1047 325.735 1056.22 330.652 1070.86 330.652V328.652C1056.74 328.652 1047.91 323.953 1038.23 319.141C1028.52 314.31 1018.06 309.421 1000.9 309.421V311.421Z" fill="#000"/>
<path d="M929.059 310.876C928.507 310.867 928.067 310.412 928.076 309.86C928.085 309.308 928.54 308.868 929.092 308.877L929.059 310.876ZM1260.6 356.167C1260.61 356.719 1260.16 357.171 1259.61 357.176L1250.61 357.254C1250.06 357.259 1249.61 356.815 1249.6 356.263C1249.6 355.71 1250.04 355.259 1250.59 355.254L1258.59 355.185L1258.52 347.185C1258.52 346.633 1258.96 346.181 1259.51 346.176C1260.07 346.171 1260.52 346.615 1260.52 347.167L1260.6 356.167ZM985.476 308.079L985.575 309.074L985.476 308.079ZM1160.97 294.495C1170.43 294.495 1181.38 298.376 1192.4 304.089C1203.45 309.814 1214.67 317.435 1224.72 325.038C1234.77 332.644 1243.67 340.248 1250.04 345.949C1253.23 348.8 1255.8 351.176 1257.56 352.841C1258.45 353.673 1259.13 354.327 1259.59 354.774C1259.83 354.998 1260 355.169 1260.12 355.285C1260.18 355.343 1260.23 355.387 1260.26 355.417C1260.27 355.432 1260.28 355.443 1260.29 355.451C1260.29 355.454 1260.3 355.457 1260.3 355.459C1260.3 355.46 1260.3 355.461 1260.3 355.462C1260.3 355.462 1260.3 355.463 1259.6 356.176C1258.9 356.889 1258.9 356.889 1258.9 356.889C1258.9 356.888 1258.9 356.888 1258.9 356.887C1258.9 356.885 1258.89 356.882 1258.89 356.879C1258.88 356.872 1258.87 356.861 1258.86 356.847C1258.83 356.818 1258.78 356.775 1258.73 356.718C1258.61 356.605 1258.43 356.435 1258.21 356.214C1257.75 355.772 1257.07 355.123 1256.19 354.296C1254.44 352.642 1251.89 350.278 1248.71 347.44C1242.36 341.764 1233.51 334.197 1223.52 326.633C1213.52 319.066 1202.39 311.518 1191.48 305.865C1180.55 300.2 1169.95 296.495 1160.97 296.495V294.495ZM1049.74 297.192C1062.95 297.192 1071.58 302.152 1079.32 307.007C1087.07 311.877 1093.79 316.516 1103.44 316.516V318.516C1093.1 318.516 1085.89 313.494 1078.25 308.701C1070.6 303.894 1062.37 299.192 1049.74 299.192V297.192ZM1103.44 316.516C1113.02 316.516 1117.86 311.322 1125.27 305.709C1132.68 300.1 1142.26 294.495 1160.97 294.495V296.495C1142.78 296.495 1133.61 301.902 1126.48 307.303C1119.35 312.7 1113.87 318.516 1103.44 318.516V316.516ZM929.076 309.877C929.092 308.877 929.092 308.877 929.092 308.877C929.093 308.877 929.093 308.877 929.094 308.877C929.094 308.877 929.096 308.877 929.098 308.877C929.102 308.877 929.108 308.877 929.115 308.877C929.131 308.877 929.155 308.878 929.186 308.878C929.248 308.879 929.341 308.88 929.464 308.882C929.709 308.886 930.073 308.89 930.544 308.895C931.486 308.906 932.858 308.918 934.579 308.925C938.021 308.939 942.856 308.933 948.427 308.855C959.573 308.698 973.64 308.249 985.377 307.084L985.575 309.074C973.752 310.248 959.618 310.698 948.455 310.855C942.87 310.933 938.023 310.939 934.571 310.925C932.845 310.917 931.468 310.905 930.522 310.895C930.049 310.89 929.684 310.885 929.436 310.882C929.313 310.88 929.219 310.879 929.155 310.878C929.124 310.877 929.1 310.877 929.084 310.877C929.076 310.877 929.07 310.877 929.066 310.877C929.063 310.876 929.062 310.876 929.061 310.876C929.06 310.876 929.06 310.876 929.06 310.876C929.059 310.876 929.059 310.876 929.076 309.877ZM985.377 307.084C998.351 305.796 1007.89 303.342 1017.49 301.188C1027.09 299.033 1036.71 297.192 1049.74 297.192V299.192C1036.93 299.192 1027.47 300.998 1017.92 303.14C1008.38 305.282 998.699 307.771 985.575 309.074L985.377 307.084Z" fill="#000"/>
<rect x="892" y="305.383" width="8.9881" height="8.9881" rx="0.898809" fill="#000"/>
</svg>
