<svg width="16" height="15" viewBox="0 0 16 15" fill="#fff" xmlns="http://www.w3.org/2000/svg">
<path d="M7.50117 1.35138C9.50379 1.35138 9.74101 1.35903 10.5319 1.39511C11.2631 1.42846 11.6603 1.55064 11.9245 1.65335C12.2746 1.78941 12.5245 1.95194 12.7869 2.21437C13.0494 2.47684 13.2119 2.72669 13.348 3.07678C13.4507 3.34106 13.5729 3.73819 13.6062 4.46945C13.6423 5.26031 13.65 5.49753 13.65 7.50014C13.65 9.50278 13.6423 9.74 13.6062 10.5309C13.5729 11.2621 13.4507 11.6592 13.348 11.9235C13.2119 12.2736 13.0494 12.5235 12.787 12.7859C12.5245 13.0484 12.2746 13.2109 11.9245 13.347C11.6603 13.4497 11.2631 13.5719 10.5319 13.6052C9.74113 13.6413 9.50393 13.6489 7.50117 13.6489C5.49838 13.6489 5.26121 13.6413 4.47044 13.6052C3.73918 13.5719 3.34205 13.4497 3.07776 13.347C2.72768 13.2109 2.47783 13.0484 2.21539 12.7859C1.95295 12.5235 1.79039 12.2736 1.65434 11.9235C1.55162 11.6592 1.42944 11.2621 1.39609 10.5309C1.36001 9.74 1.35236 9.50278 1.35236 7.50014C1.35236 5.49753 1.36001 5.26031 1.39609 4.46945C1.42944 3.73819 1.55162 3.34106 1.65434 3.07678C1.79039 2.72669 1.95292 2.47684 2.21539 2.2144C2.47783 1.95194 2.72768 1.78941 3.07776 1.65335C3.34205 1.55064 3.73918 1.42846 4.47044 1.39511C5.2613 1.35903 5.49853 1.35138 7.50117 1.35138ZM7.50117 0C5.46423 0 5.20882 0.00863385 4.40884 0.0451342C3.61054 0.0815452 3.06532 0.208344 2.58825 0.393733C2.09505 0.585405 1.67678 0.84186 1.2598 1.25882C0.84284 1.6758 0.586384 2.09407 0.394741 2.58727C0.209321 3.06433 0.0825221 3.60955 0.0461109 4.40785C0.00961045 5.20782 0.000976562 5.46323 0.000976562 7.50014C0.000976562 9.53707 0.00961045 9.79249 0.0461109 10.5925C0.0825221 11.3908 0.209321 11.936 0.394741 12.413C0.586384 12.9062 0.84284 13.3245 1.2598 13.7415C1.67678 14.1584 2.09505 14.4149 2.58825 14.6065C3.06532 14.792 3.61054 14.9188 4.40884 14.9552C5.20882 14.9917 5.46423 15.0003 7.50117 15.0003C9.53808 15.0003 9.7935 14.9917 10.5935 14.9552C11.3918 14.9188 11.937 14.792 12.4141 14.6065C12.9073 14.4149 13.3255 14.1584 13.7425 13.7415C14.1595 13.3245 14.4159 12.9062 14.6076 12.413C14.793 11.936 14.9198 11.3908 14.9562 10.5925C14.9927 9.79249 15.0013 9.53707 15.0013 7.50014C15.0013 5.46323 14.9927 5.20782 14.9562 4.40785C14.9198 3.60955 14.793 3.06433 14.6076 2.58727C14.4159 2.09407 14.1595 1.6758 13.7425 1.25882C13.3255 0.84186 12.9073 0.585405 12.4141 0.393733C11.937 0.208344 11.3918 0.0815452 10.5935 0.0451342C9.7935 0.00863385 9.53808 0 7.50117 0Z" fill="#fff"></path>
<path d="M7.50453 3.65308C5.37741 3.65308 3.65308 5.37741 3.65308 7.50449C3.65308 9.6316 5.37741 11.3559 7.50453 11.3559C9.63162 11.3559 11.356 9.6316 11.356 7.50449C11.356 5.37741 9.63162 3.65308 7.50453 3.65308ZM7.50453 10.0046C6.12377 10.0046 5.00446 8.88525 5.00446 7.50449C5.00446 6.12376 6.12377 5.00445 7.50453 5.00445C8.88527 5.00445 10.0046 6.12376 10.0046 7.50449C10.0046 8.88525 8.88527 10.0046 7.50453 10.0046Z" fill="#fff"></path>
<path d="M12.407 3.49842C12.407 3.99547 12.004 4.39843 11.5069 4.39843C11.0099 4.39843 10.6069 3.99547 10.6069 3.49842C10.6069 3.00135 11.0099 2.59839 11.5069 2.59839C12.004 2.59839 12.407 3.00135 12.407 3.49842Z" fill="#fff"></path>
</svg>