<svg width="14" height="14" viewBox="0 0 14 14" fill="none" xmlns="http://www.w3.org/2000/svg">
<path fill-rule="evenodd" clip-rule="evenodd" d="M3.27696 2.37484C3.27696 3.14991 2.68681 3.77715 1.76392 3.77715C0.876984 3.77715 0.286836 3.14991 0.3051 2.37484C0.286836 1.5621 0.87697 0.953125 1.7816 0.953125C2.6868 0.953125 3.25927 1.5621 3.27696 2.37484ZM0.379299 13.913V4.88496H3.18506V13.9124H0.379299V13.913Z" fill="#fff"></path>
<path fill-rule="evenodd" clip-rule="evenodd" d="M5.43406 7.76593C5.43406 6.63985 5.39696 5.67986 5.35986 4.88596H7.79693L7.92648 6.12276H7.98186C8.35113 5.55031 9.27402 4.68335 10.7694 4.68335C12.6152 4.68335 13.9998 5.90188 13.9998 8.55926V13.914H11.194V8.91083C11.194 7.74709 10.7882 6.95376 9.77285 6.95376C8.99721 6.95376 8.53605 7.48911 8.3517 8.00564C8.27751 8.19056 8.24098 8.44853 8.24098 8.70765V13.914H5.43519V7.76593H5.43406Z" fill="#fff"></path>
</svg>