<svg xmlns="http://www.w3.org/2000/svg" xmlns:xlink="http://www.w3.org/1999/xlink" viewBox="0 0 700 300" width="700" height="300" preserveAspectRatio="xMidYMid meet" style="width: 100%; height: 100%; transform: translate3d(0px, 0px, 0px); content-visibility: visible;"><defs><clipPath id="__lottie_element_132"><rect width="700" height="300" x="0" y="0"></rect></clipPath><clipPath id="__lottie_element_134"><path d="M0,0 L700,0 L700,300 L0,300z"></path></clipPath></defs><g clipPath="url(#__lottie_element_132)"><g clipPath="url(#__lottie_element_134)" transform="matrix(1,0,0,1,0,0)" opacity="1" style="display: block;"><g transform="matrix(0.38510000705718994,0,0,1,151.25497436523438,147.34500122070312)" opacity="0.2" style="display: block;"><g opacity="1" transform="matrix(1,0,0,1,-335.7309875488281,-4.84499979019165)"><path fill="rgb(255,255,255)" fillOpacity="1" d=" M5,-5.699704170227051 C5,-5.699704170227051 5,5.699704170227051 5,5.699704170227051 C5,8.459203720092773 2.759500026702881,10.69970417022705 0,10.69970417022705 C0,10.69970417022705 0,10.69970417022705 0,10.69970417022705 C-2.759500026702881,10.69970417022705 -5,8.459203720092773 -5,5.699704170227051 C-5,5.699704170227051 -5,-5.699704170227051 -5,-5.699704170227051 C-5,-8.459203720092773 -2.759500026702881,-10.69970417022705 0,-10.69970417022705 C0,-10.69970417022705 0,-10.69970417022705 0,-10.69970417022705 C2.759500026702881,-10.69970417022705 5,-8.459203720092773 5,-5.699704170227051z"></path><path strokeLinecap="butt" strokeLinejoin="miter" fillOpacity="0" strokeMiterlimit="4" stroke="rgb(0,0,0)" strokeOpacity="1" strokeWidth="0" d=" M5,-5.699704170227051 C5,-5.699704170227051 5,5.699704170227051 5,5.699704170227051 C5,8.459203720092773 2.759500026702881,10.69970417022705 0,10.69970417022705 C0,10.69970417022705 0,10.69970417022705 0,10.69970417022705 C-2.759500026702881,10.69970417022705 -5,8.459203720092773 -5,5.699704170227051 C-5,5.699704170227051 -5,-5.699704170227051 -5,-5.699704170227051 C-5,-8.459203720092773 -2.759500026702881,-10.69970417022705 0,-10.69970417022705 C0,-10.69970417022705 0,-10.69970417022705 0,-10.69970417022705 C2.759500026702881,-10.69970417022705 5,-8.459203720092773 5,-5.699704170227051z"></path></g></g><g transform="matrix(0.38510000705718994,0,0,1,170.12562561035156,147.34500122070312)" opacity="0.2" style="display: block;"><g opacity="1" transform="matrix(1,0,0,1,-335.7309875488281,-4.84499979019165)"><path fill="rgb(255,255,255)" fillOpacity="1" d=" M5,-26.549556732177734 C5,-26.549556732177734 5,26.549556732177734 5,26.549556732177734 C5,29.309057235717773 2.759500026702881,31.549556732177734 0,31.549556732177734 C0,31.549556732177734 0,31.549556732177734 0,31.549556732177734 C-2.759500026702881,31.549556732177734 -5,29.309057235717773 -5,26.549556732177734 C-5,26.549556732177734 -5,-26.549556732177734 -5,-26.549556732177734 C-5,-29.309057235717773 -2.759500026702881,-31.549556732177734 0,-31.549556732177734 C0,-31.549556732177734 0,-31.549556732177734 0,-31.549556732177734 C2.759500026702881,-31.549556732177734 5,-29.309057235717773 5,-26.549556732177734z"></path><path strokeLinecap="butt" strokeLinejoin="miter" fillOpacity="0" strokeMiterlimit="4" stroke="rgb(0,0,0)" strokeOpacity="1" strokeWidth="0" d=" M5,-26.549556732177734 C5,-26.549556732177734 5,26.549556732177734 5,26.549556732177734 C5,29.309057235717773 2.759500026702881,31.549556732177734 0,31.549556732177734 C0,31.549556732177734 0,31.549556732177734 0,31.549556732177734 C-2.759500026702881,31.549556732177734 -5,29.309057235717773 -5,26.549556732177734 C-5,26.549556732177734 -5,-26.549556732177734 -5,-26.549556732177734 C-5,-29.309057235717773 -2.759500026702881,-31.549556732177734 0,-31.549556732177734 C0,-31.549556732177734 0,-31.549556732177734 0,-31.549556732177734 C2.759500026702881,-31.549556732177734 5,-29.309057235717773 5,-26.549556732177734z"></path></g></g><g transform="matrix(0.38510000705718994,0,0,1,188.99745178222656,147.34500122070312)" opacity="0.2" style="display: block;"><g opacity="1" transform="matrix(1,0,0,1,-335.7309875488281,-4.84499979019165)"><path fill="rgb(255,255,255)" fillOpacity="1" d=" M5,-14.33089828491211 C5,-14.33089828491211 5,14.33089828491211 5,14.33089828491211 C5,17.09039878845215 2.759500026702881,19.33089828491211 0,19.33089828491211 C0,19.33089828491211 0,19.33089828491211 0,19.33089828491211 C-2.759500026702881,19.33089828491211 -5,17.09039878845215 -5,14.33089828491211 C-5,14.33089828491211 -5,-14.33089828491211 -5,-14.33089828491211 C-5,-17.09039878845215 -2.759500026702881,-19.33089828491211 0,-19.33089828491211 C0,-19.33089828491211 0,-19.33089828491211 0,-19.33089828491211 C2.759500026702881,-19.33089828491211 5,-17.09039878845215 5,-14.33089828491211z"></path><path strokeLinecap="butt" strokeLinejoin="miter" fillOpacity="0" strokeMiterlimit="4" stroke="rgb(0,0,0)" strokeOpacity="1" strokeWidth="0" d=" M5,-14.33089828491211 C5,-14.33089828491211 5,14.33089828491211 5,14.33089828491211 C5,17.09039878845215 2.759500026702881,19.33089828491211 0,19.33089828491211 C0,19.33089828491211 0,19.33089828491211 0,19.33089828491211 C-2.759500026702881,19.33089828491211 -5,17.09039878845215 -5,14.33089828491211 C-5,14.33089828491211 -5,-14.33089828491211 -5,-14.33089828491211 C-5,-17.09039878845215 -2.759500026702881,-19.33089828491211 0,-19.33089828491211 C0,-19.33089828491211 0,-19.33089828491211 0,-19.33089828491211 C2.759500026702881,-19.33089828491211 5,-17.09039878845215 5,-14.33089828491211z"></path></g></g><g transform="matrix(0.38510000705718994,0,0,1,207.8685302734375,147.34500122070312)" opacity="0.2" style="display: block;"><g opacity="1" transform="matrix(1,0,0,1,-335.7309875488281,-4.84499979019165)"><path fill="rgb(255,255,255)" fillOpacity="1" d=" M5,-37.13850021362305 C5,-37.13850021362305 5,37.13850021362305 5,37.13850021362305 C5,39.89799880981445 2.759500026702881,42.13850021362305 0,42.13850021362305 C0,42.13850021362305 0,42.13850021362305 0,42.13850021362305 C-2.759500026702881,42.13850021362305 -5,39.89799880981445 -5,37.13850021362305 C-5,37.13850021362305 -5,-37.13850021362305 -5,-37.13850021362305 C-5,-39.89799880981445 -2.759500026702881,-42.13850021362305 0,-42.13850021362305 C0,-42.13850021362305 0,-42.13850021362305 0,-42.13850021362305 C2.759500026702881,-42.13850021362305 5,-39.89799880981445 5,-37.13850021362305z"></path><path strokeLinecap="butt" strokeLinejoin="miter" fillOpacity="0" strokeMiterlimit="4" stroke="rgb(0,0,0)" strokeOpacity="1" strokeWidth="0" d=" M5,-37.13850021362305 C5,-37.13850021362305 5,37.13850021362305 5,37.13850021362305 C5,39.89799880981445 2.759500026702881,42.13850021362305 0,42.13850021362305 C0,42.13850021362305 0,42.13850021362305 0,42.13850021362305 C-2.759500026702881,42.13850021362305 -5,39.89799880981445 -5,37.13850021362305 C-5,37.13850021362305 -5,-37.13850021362305 -5,-37.13850021362305 C-5,-39.89799880981445 -2.759500026702881,-42.13850021362305 0,-42.13850021362305 C0,-42.13850021362305 0,-42.13850021362305 0,-42.13850021362305 C2.759500026702881,-42.13850021362305 5,-39.89799880981445 5,-37.13850021362305z"></path></g></g><g transform="matrix(0.38510000705718994,0,0,1,226.7403564453125,147.34500122070312)" opacity="0.2" style="display: block;"><g opacity="1" transform="matrix(1,0,0,1,-335.7309875488281,-4.84499979019165)"><path fill="rgb(255,255,255)" fillOpacity="1" d=" M5,-63.819252014160156 C5,-63.819252014160156 5,63.819252014160156 5,63.819252014160156 C5,66.57875061035156 2.759500026702881,68.81925201416016 0,68.81925201416016 C0,68.81925201416016 0,68.81925201416016 0,68.81925201416016 C-2.759500026702881,68.81925201416016 -5,66.57875061035156 -5,63.819252014160156 C-5,63.819252014160156 -5,-63.819252014160156 -5,-63.819252014160156 C-5,-66.57875061035156 -2.759500026702881,-68.81925201416016 0,-68.81925201416016 C0,-68.81925201416016 0,-68.81925201416016 0,-68.81925201416016 C2.759500026702881,-68.81925201416016 5,-66.57875061035156 5,-63.819252014160156z"></path><path strokeLinecap="butt" strokeLinejoin="miter" fillOpacity="0" strokeMiterlimit="4" stroke="rgb(0,0,0)" strokeOpacity="1" strokeWidth="0" d=" M5,-63.819252014160156 C5,-63.819252014160156 5,63.819252014160156 5,63.819252014160156 C5,66.57875061035156 2.759500026702881,68.81925201416016 0,68.81925201416016 C0,68.81925201416016 0,68.81925201416016 0,68.81925201416016 C-2.759500026702881,68.81925201416016 -5,66.57875061035156 -5,63.819252014160156 C-5,63.819252014160156 -5,-63.819252014160156 -5,-63.819252014160156 C-5,-66.57875061035156 -2.759500026702881,-68.81925201416016 0,-68.81925201416016 C0,-68.81925201416016 0,-68.81925201416016 0,-68.81925201416016 C2.759500026702881,-68.81925201416016 5,-66.57875061035156 5,-63.819252014160156z"></path></g></g><g transform="matrix(0.38510000705718994,0,0,1,245.6110076904297,147.34500122070312)" opacity="0.2" style="display: block;"><g opacity="1" transform="matrix(1,0,0,1,-335.7309875488281,-4.84499979019165)"><path fill="rgb(255,255,255)" fillOpacity="1" d=" M5,-25.612241744995117 C5,-25.612241744995117 5,25.612241744995117 5,25.612241744995117 C5,28.371742248535156 2.759500026702881,30.612241744995117 0,30.612241744995117 C0,30.612241744995117 0,30.612241744995117 0,30.612241744995117 C-2.759500026702881,30.612241744995117 -5,28.371742248535156 -5,25.612241744995117 C-5,25.612241744995117 -5,-25.612241744995117 -5,-25.612241744995117 C-5,-28.371742248535156 -2.759500026702881,-30.612241744995117 0,-30.612241744995117 C0,-30.612241744995117 0,-30.612241744995117 0,-30.612241744995117 C2.759500026702881,-30.612241744995117 5,-28.371742248535156 5,-25.612241744995117z"></path><path strokeLinecap="butt" strokeLinejoin="miter" fillOpacity="0" strokeMiterlimit="4" stroke="rgb(0,0,0)" strokeOpacity="1" strokeWidth="0" d=" M5,-25.612241744995117 C5,-25.612241744995117 5,25.612241744995117 5,25.612241744995117 C5,28.371742248535156 2.759500026702881,30.612241744995117 0,30.612241744995117 C0,30.612241744995117 0,30.612241744995117 0,30.612241744995117 C-2.759500026702881,30.612241744995117 -5,28.371742248535156 -5,25.612241744995117 C-5,25.612241744995117 -5,-25.612241744995117 -5,-25.612241744995117 C-5,-28.371742248535156 -2.759500026702881,-30.612241744995117 0,-30.612241744995117 C0,-30.612241744995117 0,-30.612241744995117 0,-30.612241744995117 C2.759500026702881,-30.612241744995117 5,-28.371742248535156 5,-25.612241744995117z"></path></g></g><g transform="matrix(0.38510000705718994,0,0,1,264.48321533203125,147.34500122070312)" opacity="0.2" style="display: block;"><g opacity="1" transform="matrix(1,0,0,1,-335.7309875488281,-4.84499979019165)"><path fill="rgb(255,255,255)" fillOpacity="1" d=" M5,-52.18075180053711 C5,-52.18075180053711 5,52.18075180053711 5,52.18075180053711 C5,54.940250396728516 2.759500026702881,57.18075180053711 0,57.18075180053711 C0,57.18075180053711 0,57.18075180053711 0,57.18075180053711 C-2.759500026702881,57.18075180053711 -5,54.940250396728516 -5,52.18075180053711 C-5,52.18075180053711 -5,-52.18075180053711 -5,-52.18075180053711 C-5,-54.940250396728516 -2.759500026702881,-57.18075180053711 0,-57.18075180053711 C0,-57.18075180053711 0,-57.18075180053711 0,-57.18075180053711 C2.759500026702881,-57.18075180053711 5,-54.940250396728516 5,-52.18075180053711z"></path><path strokeLinecap="butt" strokeLinejoin="miter" fillOpacity="0" strokeMiterlimit="4" stroke="rgb(0,0,0)" strokeOpacity="1" strokeWidth="0" d=" M5,-52.18075180053711 C5,-52.18075180053711 5,52.18075180053711 5,52.18075180053711 C5,54.940250396728516 2.759500026702881,57.18075180053711 0,57.18075180053711 C0,57.18075180053711 0,57.18075180053711 0,57.18075180053711 C-2.759500026702881,57.18075180053711 -5,54.940250396728516 -5,52.18075180053711 C-5,52.18075180053711 -5,-52.18075180053711 -5,-52.18075180053711 C-5,-54.940250396728516 -2.759500026702881,-57.18075180053711 0,-57.18075180053711 C0,-57.18075180053711 0,-57.18075180053711 0,-57.18075180053711 C2.759500026702881,-57.18075180053711 5,-54.940250396728516 5,-52.18075180053711z"></path></g></g><g transform="matrix(0.38510000705718994,0,0,1,283.3539123535156,147.34500122070312)" opacity="0.2" style="display: block;"><g opacity="1" transform="matrix(1,0,0,1,-335.7309875488281,-4.84499979019165)"><path fill="rgb(255,255,255)" fillOpacity="1" d=" M5,-40.33089828491211 C5,-40.33089828491211 5,40.33089828491211 5,40.33089828491211 C5,43.090396881103516 2.759500026702881,45.33089828491211 0,45.33089828491211 C0,45.33089828491211 0,45.33089828491211 0,45.33089828491211 C-2.759500026702881,45.33089828491211 -5,43.090396881103516 -5,40.33089828491211 C-5,40.33089828491211 -5,-40.33089828491211 -5,-40.33089828491211 C-5,-43.090396881103516 -2.759500026702881,-45.33089828491211 0,-45.33089828491211 C0,-45.33089828491211 0,-45.33089828491211 0,-45.33089828491211 C2.759500026702881,-45.33089828491211 5,-43.090396881103516 5,-40.33089828491211z"></path><path strokeLinecap="butt" strokeLinejoin="miter" fillOpacity="0" strokeMiterlimit="4" stroke="rgb(0,0,0)" strokeOpacity="1" strokeWidth="0" d=" M5,-40.33089828491211 C5,-40.33089828491211 5,40.33089828491211 5,40.33089828491211 C5,43.090396881103516 2.759500026702881,45.33089828491211 0,45.33089828491211 C0,45.33089828491211 0,45.33089828491211 0,45.33089828491211 C-2.759500026702881,45.33089828491211 -5,43.090396881103516 -5,40.33089828491211 C-5,40.33089828491211 -5,-40.33089828491211 -5,-40.33089828491211 C-5,-43.090396881103516 -2.759500026702881,-45.33089828491211 0,-45.33089828491211 C0,-45.33089828491211 0,-45.33089828491211 0,-45.33089828491211 C2.759500026702881,-45.33089828491211 5,-43.090396881103516 5,-40.33089828491211z"></path></g></g><g transform="matrix(0.38510000705718994,0,0,1,302.2249450683594,147.34500122070312)" opacity="0.2" style="display: block;"><g opacity="1" transform="matrix(1,0,0,1,-335.7309875488281,-4.84499979019165)"><path fill="rgb(255,255,255)" fillOpacity="1" d=" M5,-14.199703216552734 C5,-14.199703216552734 5,14.199703216552734 5,14.199703216552734 C5,16.959203720092773 2.759500026702881,19.199703216552734 0,19.199703216552734 C0,19.199703216552734 0,19.199703216552734 0,19.199703216552734 C-2.759500026702881,19.199703216552734 -5,16.959203720092773 -5,14.199703216552734 C-5,14.199703216552734 -5,-14.199703216552734 -5,-14.199703216552734 C-5,-16.959203720092773 -2.759500026702881,-19.199703216552734 0,-19.199703216552734 C0,-19.199703216552734 0,-19.199703216552734 0,-19.199703216552734 C2.759500026702881,-19.199703216552734 5,-16.959203720092773 5,-14.199703216552734z"></path><path strokeLinecap="butt" strokeLinejoin="miter" fillOpacity="0" strokeMiterlimit="4" stroke="rgb(0,0,0)" strokeOpacity="1" strokeWidth="0" d=" M5,-14.199703216552734 C5,-14.199703216552734 5,14.199703216552734 5,14.199703216552734 C5,16.959203720092773 2.759500026702881,19.199703216552734 0,19.199703216552734 C0,19.199703216552734 0,19.199703216552734 0,19.199703216552734 C-2.759500026702881,19.199703216552734 -5,16.959203720092773 -5,14.199703216552734 C-5,14.199703216552734 -5,-14.199703216552734 -5,-14.199703216552734 C-5,-16.959203720092773 -2.759500026702881,-19.199703216552734 0,-19.199703216552734 C0,-19.199703216552734 0,-19.199703216552734 0,-19.199703216552734 C2.759500026702881,-19.199703216552734 5,-16.959203720092773 5,-14.199703216552734z"></path></g></g><g transform="matrix(0.38510000705718994,0,0,1,321.0967712402344,147.34500122070312)" opacity="0.2" style="display: block;"><g opacity="1" transform="matrix(1,0,0,1,-335.7309875488281,-4.84499979019165)"><path fill="rgb(255,255,255)" fillOpacity="1" d=" M5,-28.33820343017578 C5,-28.33820343017578 5,28.33820343017578 5,28.33820343017578 C5,31.09770393371582 2.759500026702881,33.33820343017578 0,33.33820343017578 C0,33.33820343017578 0,33.33820343017578 0,33.33820343017578 C-2.759500026702881,33.33820343017578 -5,31.09770393371582 -5,28.33820343017578 C-5,28.33820343017578 -5,-28.33820343017578 -5,-28.33820343017578 C-5,-31.09770393371582 -2.759500026702881,-33.33820343017578 0,-33.33820343017578 C0,-33.33820343017578 0,-33.33820343017578 0,-33.33820343017578 C2.759500026702881,-33.33820343017578 5,-31.09770393371582 5,-28.33820343017578z"></path><path strokeLinecap="butt" strokeLinejoin="miter" fillOpacity="0" strokeMiterlimit="4" stroke="rgb(0,0,0)" strokeOpacity="1" strokeWidth="0" d=" M5,-28.33820343017578 C5,-28.33820343017578 5,28.33820343017578 5,28.33820343017578 C5,31.09770393371582 2.759500026702881,33.33820343017578 0,33.33820343017578 C0,33.33820343017578 0,33.33820343017578 0,33.33820343017578 C-2.759500026702881,33.33820343017578 -5,31.09770393371582 -5,28.33820343017578 C-5,28.33820343017578 -5,-28.33820343017578 -5,-28.33820343017578 C-5,-31.09770393371582 -2.759500026702881,-33.33820343017578 0,-33.33820343017578 C0,-33.33820343017578 0,-33.33820343017578 0,-33.33820343017578 C2.759500026702881,-33.33820343017578 5,-31.09770393371582 5,-28.33820343017578z"></path></g></g><g transform="matrix(0.38510000705718994,0,0,1,339.96746826171875,147.34500122070312)" opacity="0.2" style="display: block;"><g opacity="1" transform="matrix(1,0,0,1,-335.7309875488281,-4.84499979019165)"><path fill="rgb(255,255,255)" fillOpacity="1" d=" M5,-53.207008361816406 C5,-53.207008361816406 5,53.207008361816406 5,53.207008361816406 C5,55.96650695800781 2.759500026702881,58.207008361816406 0,58.207008361816406 C0,58.207008361816406 0,58.207008361816406 0,58.207008361816406 C-2.759500026702881,58.207008361816406 -5,55.96650695800781 -5,53.207008361816406 C-5,53.207008361816406 -5,-53.207008361816406 -5,-53.207008361816406 C-5,-55.96650695800781 -2.759500026702881,-58.207008361816406 0,-58.207008361816406 C0,-58.207008361816406 0,-58.207008361816406 0,-58.207008361816406 C2.759500026702881,-58.207008361816406 5,-55.96650695800781 5,-53.207008361816406z"></path><path strokeLinecap="butt" strokeLinejoin="miter" fillOpacity="0" strokeMiterlimit="4" stroke="rgb(0,0,0)" strokeOpacity="1" strokeWidth="0" d=" M5,-53.207008361816406 C5,-53.207008361816406 5,53.207008361816406 5,53.207008361816406 C5,55.96650695800781 2.759500026702881,58.207008361816406 0,58.207008361816406 C0,58.207008361816406 0,58.207008361816406 0,58.207008361816406 C-2.759500026702881,58.207008361816406 -5,55.96650695800781 -5,53.207008361816406 C-5,53.207008361816406 -5,-53.207008361816406 -5,-53.207008361816406 C-5,-55.96650695800781 -2.759500026702881,-58.207008361816406 0,-58.207008361816406 C0,-58.207008361816406 0,-58.207008361816406 0,-58.207008361816406 C2.759500026702881,-58.207008361816406 5,-55.96650695800781 5,-53.207008361816406z"></path></g></g><g transform="matrix(0.38510000705718994,0,0,1,358.8392639160156,147.34500122070312)" opacity="0.2" style="display: block;"><g opacity="1" transform="matrix(1,0,0,1,-335.7309875488281,-4.84499979019165)"><path fill="rgb(255,255,255)" fillOpacity="1" d=" M5,-12.199703216552734 C5,-12.199703216552734 5,12.199703216552734 5,12.199703216552734 C5,14.959202766418457 2.759500026702881,17.199703216552734 0,17.199703216552734 C0,17.199703216552734 0,17.199703216552734 0,17.199703216552734 C-2.759500026702881,17.199703216552734 -5,14.959202766418457 -5,12.199703216552734 C-5,12.199703216552734 -5,-12.199703216552734 -5,-12.199703216552734 C-5,-14.959202766418457 -2.759500026702881,-17.199703216552734 0,-17.199703216552734 C0,-17.199703216552734 0,-17.199703216552734 0,-17.199703216552734 C2.759500026702881,-17.199703216552734 5,-14.959202766418457 5,-12.199703216552734z"></path><path strokeLinecap="butt" strokeLinejoin="miter" fillOpacity="0" strokeMiterlimit="4" stroke="rgb(0,0,0)" strokeOpacity="1" strokeWidth="0" d=" M5,-12.199703216552734 C5,-12.199703216552734 5,12.199703216552734 5,12.199703216552734 C5,14.959202766418457 2.759500026702881,17.199703216552734 0,17.199703216552734 C0,17.199703216552734 0,17.199703216552734 0,17.199703216552734 C-2.759500026702881,17.199703216552734 -5,14.959202766418457 -5,12.199703216552734 C-5,12.199703216552734 -5,-12.199703216552734 -5,-12.199703216552734 C-5,-14.959202766418457 -2.759500026702881,-17.199703216552734 0,-17.199703216552734 C0,-17.199703216552734 0,-17.199703216552734 0,-17.199703216552734 C2.759500026702881,-17.199703216552734 5,-14.959202766418457 5,-12.199703216552734z"></path></g></g><g transform="matrix(0.38510000705718994,0,0,1,377.7103271484375,147.34500122070312)" opacity="0.2" style="display: block;"><g opacity="1" transform="matrix(1,0,0,1,-335.7309875488281,-4.84499979019165)"><path fill="rgb(255,255,255)" fillOpacity="1" d=" M5,-22.731786727905273 C5,-22.731786727905273 5,22.731786727905273 5,22.731786727905273 C5,25.491287231445312 2.759500026702881,27.731786727905273 0,27.731786727905273 C0,27.731786727905273 0,27.731786727905273 0,27.731786727905273 C-2.759500026702881,27.731786727905273 -5,25.491287231445312 -5,22.731786727905273 C-5,22.731786727905273 -5,-22.731786727905273 -5,-22.731786727905273 C-5,-25.491287231445312 -2.759500026702881,-27.731786727905273 0,-27.731786727905273 C0,-27.731786727905273 0,-27.731786727905273 0,-27.731786727905273 C2.759500026702881,-27.731786727905273 5,-25.491287231445312 5,-22.731786727905273z"></path><path strokeLinecap="butt" strokeLinejoin="miter" fillOpacity="0" strokeMiterlimit="4" stroke="rgb(0,0,0)" strokeOpacity="1" strokeWidth="0" d=" M5,-22.731786727905273 C5,-22.731786727905273 5,22.731786727905273 5,22.731786727905273 C5,25.491287231445312 2.759500026702881,27.731786727905273 0,27.731786727905273 C0,27.731786727905273 0,27.731786727905273 0,27.731786727905273 C-2.759500026702881,27.731786727905273 -5,25.491287231445312 -5,22.731786727905273 C-5,22.731786727905273 -5,-22.731786727905273 -5,-22.731786727905273 C-5,-25.491287231445312 -2.759500026702881,-27.731786727905273 0,-27.731786727905273 C0,-27.731786727905273 0,-27.731786727905273 0,-27.731786727905273 C2.759500026702881,-27.731786727905273 5,-25.491287231445312 5,-22.731786727905273z"></path></g></g><g transform="matrix(0.38510000705718994,0,0,1,396.5821533203125,147.34500122070312)" opacity="0.2" style="display: block;"><g opacity="1" transform="matrix(1,0,0,1,-335.7309875488281,-4.84499979019165)"><path fill="rgb(255,255,255)" fillOpacity="1" d=" M5,-44.10059356689453 C5,-44.10059356689453 5,44.10059356689453 5,44.10059356689453 C5,46.86009216308594 2.759500026702881,49.10059356689453 0,49.10059356689453 C0,49.10059356689453 0,49.10059356689453 0,49.10059356689453 C-2.759500026702881,49.10059356689453 -5,46.86009216308594 -5,44.10059356689453 C-5,44.10059356689453 -5,-44.10059356689453 -5,-44.10059356689453 C-5,-46.86009216308594 -2.759500026702881,-49.10059356689453 0,-49.10059356689453 C0,-49.10059356689453 0,-49.10059356689453 0,-49.10059356689453 C2.759500026702881,-49.10059356689453 5,-46.86009216308594 5,-44.10059356689453z"></path><path strokeLinecap="butt" strokeLinejoin="miter" fillOpacity="0" strokeMiterlimit="4" stroke="rgb(0,0,0)" strokeOpacity="1" strokeWidth="0" d=" M5,-44.10059356689453 C5,-44.10059356689453 5,44.10059356689453 5,44.10059356689453 C5,46.86009216308594 2.759500026702881,49.10059356689453 0,49.10059356689453 C0,49.10059356689453 0,49.10059356689453 0,49.10059356689453 C-2.759500026702881,49.10059356689453 -5,46.86009216308594 -5,44.10059356689453 C-5,44.10059356689453 -5,-44.10059356689453 -5,-44.10059356689453 C-5,-46.86009216308594 -2.759500026702881,-49.10059356689453 0,-49.10059356689453 C0,-49.10059356689453 0,-49.10059356689453 0,-49.10059356689453 C2.759500026702881,-49.10059356689453 5,-46.86009216308594 5,-44.10059356689453z"></path></g></g><g transform="matrix(0.38510000705718994,0,0,1,415.45281982421875,147.34500122070312)" opacity="0.2" style="display: block;"><g opacity="1" transform="matrix(1,0,0,1,-335.7309875488281,-4.84499979019165)"><path fill="rgb(255,255,255)" fillOpacity="1" d=" M5,-18.97374153137207 C5,-18.97374153137207 5,18.97374153137207 5,18.97374153137207 C5,21.73324203491211 2.759500026702881,23.97374153137207 0,23.97374153137207 C0,23.97374153137207 0,23.97374153137207 0,23.97374153137207 C-2.759500026702881,23.97374153137207 -5,21.73324203491211 -5,18.97374153137207 C-5,18.97374153137207 -5,-18.97374153137207 -5,-18.97374153137207 C-5,-21.73324203491211 -2.759500026702881,-23.97374153137207 0,-23.97374153137207 C0,-23.97374153137207 0,-23.97374153137207 0,-23.97374153137207 C2.759500026702881,-23.97374153137207 5,-21.73324203491211 5,-18.97374153137207z"></path><path strokeLinecap="butt" strokeLinejoin="miter" fillOpacity="0" strokeMiterlimit="4" stroke="rgb(0,0,0)" strokeOpacity="1" strokeWidth="0" d=" M5,-18.97374153137207 C5,-18.97374153137207 5,18.97374153137207 5,18.97374153137207 C5,21.73324203491211 2.759500026702881,23.97374153137207 0,23.97374153137207 C0,23.97374153137207 0,23.97374153137207 0,23.97374153137207 C-2.759500026702881,23.97374153137207 -5,21.73324203491211 -5,18.97374153137207 C-5,18.97374153137207 -5,-18.97374153137207 -5,-18.97374153137207 C-5,-21.73324203491211 -2.759500026702881,-23.97374153137207 0,-23.97374153137207 C0,-23.97374153137207 0,-23.97374153137207 0,-23.97374153137207 C2.759500026702881,-23.97374153137207 5,-21.73324203491211 5,-18.97374153137207z"></path></g></g><g transform="matrix(0.38510000705718994,0,0,1,434.3238830566406,147.34500122070312)" opacity="0.2" style="display: block;"><g opacity="1" transform="matrix(1,0,0,1,-335.7309875488281,-4.84499979019165)"><path fill="rgb(255,255,255)" fillOpacity="1" d=" M5,-36.188053131103516 C5,-36.188053131103516 5,36.188053131103516 5,36.188053131103516 C5,38.94755172729492 2.759500026702881,41.188053131103516 0,41.188053131103516 C0,41.188053131103516 0,41.188053131103516 0,41.188053131103516 C-2.759500026702881,41.188053131103516 -5,38.94755172729492 -5,36.188053131103516 C-5,36.188053131103516 -5,-36.188053131103516 -5,-36.188053131103516 C-5,-38.94755172729492 -2.759500026702881,-41.188053131103516 0,-41.188053131103516 C0,-41.188053131103516 0,-41.188053131103516 0,-41.188053131103516 C2.759500026702881,-41.188053131103516 5,-38.94755172729492 5,-36.188053131103516z"></path><path strokeLinecap="butt" strokeLinejoin="miter" fillOpacity="0" strokeMiterlimit="4" stroke="rgb(0,0,0)" strokeOpacity="1" strokeWidth="0" d=" M5,-36.188053131103516 C5,-36.188053131103516 5,36.188053131103516 5,36.188053131103516 C5,38.94755172729492 2.759500026702881,41.188053131103516 0,41.188053131103516 C0,41.188053131103516 0,41.188053131103516 0,41.188053131103516 C-2.759500026702881,41.188053131103516 -5,38.94755172729492 -5,36.188053131103516 C-5,36.188053131103516 -5,-36.188053131103516 -5,-36.188053131103516 C-5,-38.94755172729492 -2.759500026702881,-41.188053131103516 0,-41.188053131103516 C0,-41.188053131103516 0,-41.188053131103516 0,-41.188053131103516 C2.759500026702881,-41.188053131103516 5,-38.94755172729492 5,-36.188053131103516z"></path></g></g><g transform="matrix(0.38510000705718994,0,0,1,453.1957092285156,147.34500122070312)" opacity="0.2" style="display: block;"><g opacity="1" transform="matrix(1,0,0,1,-335.7309875488281,-4.84499979019165)"><path fill="rgb(255,255,255)" fillOpacity="1" d=" M5,-57.75074005126953 C5,-57.75074005126953 5,57.75074005126953 5,57.75074005126953 C5,60.51023864746094 2.759500026702881,62.75074005126953 0,62.75074005126953 C0,62.75074005126953 0,62.75074005126953 0,62.75074005126953 C-2.759500026702881,62.75074005126953 -5,60.51023864746094 -5,57.75074005126953 C-5,57.75074005126953 -5,-57.75074005126953 -5,-57.75074005126953 C-5,-60.51023864746094 -2.759500026702881,-62.75074005126953 0,-62.75074005126953 C0,-62.75074005126953 0,-62.75074005126953 0,-62.75074005126953 C2.759500026702881,-62.75074005126953 5,-60.51023864746094 5,-57.75074005126953z"></path><path strokeLinecap="butt" strokeLinejoin="miter" fillOpacity="0" strokeMiterlimit="4" stroke="rgb(0,0,0)" strokeOpacity="1" strokeWidth="0" d=" M5,-57.75074005126953 C5,-57.75074005126953 5,57.75074005126953 5,57.75074005126953 C5,60.51023864746094 2.759500026702881,62.75074005126953 0,62.75074005126953 C0,62.75074005126953 0,62.75074005126953 0,62.75074005126953 C-2.759500026702881,62.75074005126953 -5,60.51023864746094 -5,57.75074005126953 C-5,57.75074005126953 -5,-57.75074005126953 -5,-57.75074005126953 C-5,-60.51023864746094 -2.759500026702881,-62.75074005126953 0,-62.75074005126953 C0,-62.75074005126953 0,-62.75074005126953 0,-62.75074005126953 C2.759500026702881,-62.75074005126953 5,-60.51023864746094 5,-57.75074005126953z"></path></g></g><g transform="matrix(0.38510000705718994,0,0,1,472.0663757324219,147.34500122070312)" opacity="0.2" style="display: block;"><g opacity="1" transform="matrix(1,0,0,1,-335.7309875488281,-4.84499979019165)"><path fill="rgb(255,255,255)" fillOpacity="1" d=" M5,-50.07433319091797 C5,-50.07433319091797 5,50.07433319091797 5,50.07433319091797 C5,52.833831787109375 2.759500026702881,55.07433319091797 0,55.07433319091797 C0,55.07433319091797 0,55.07433319091797 0,55.07433319091797 C-2.759500026702881,55.07433319091797 -5,52.833831787109375 -5,50.07433319091797 C-5,50.07433319091797 -5,-50.07433319091797 -5,-50.07433319091797 C-5,-52.833831787109375 -2.759500026702881,-55.07433319091797 0,-55.07433319091797 C0,-55.07433319091797 0,-55.07433319091797 0,-55.07433319091797 C2.759500026702881,-55.07433319091797 5,-52.833831787109375 5,-50.07433319091797z"></path><path strokeLinecap="butt" strokeLinejoin="miter" fillOpacity="0" strokeMiterlimit="4" stroke="rgb(0,0,0)" strokeOpacity="1" strokeWidth="0" d=" M5,-50.07433319091797 C5,-50.07433319091797 5,50.07433319091797 5,50.07433319091797 C5,52.833831787109375 2.759500026702881,55.07433319091797 0,55.07433319091797 C0,55.07433319091797 0,55.07433319091797 0,55.07433319091797 C-2.759500026702881,55.07433319091797 -5,52.833831787109375 -5,50.07433319091797 C-5,50.07433319091797 -5,-50.07433319091797 -5,-50.07433319091797 C-5,-52.833831787109375 -2.759500026702881,-55.07433319091797 0,-55.07433319091797 C0,-55.07433319091797 0,-55.07433319091797 0,-55.07433319091797 C2.759500026702881,-55.07433319091797 5,-52.833831787109375 5,-50.07433319091797z"></path></g></g><g transform="matrix(0.38510000705718994,0,0,1,490.9382019042969,147.34500122070312)" opacity="0.2" style="display: block;"><g opacity="1" transform="matrix(1,0,0,1,-335.7309875488281,-4.84499979019165)"><path fill="rgb(255,255,255)" fillOpacity="1" d=" M5,-25.86298179626465 C5,-25.86298179626465 5,25.86298179626465 5,25.86298179626465 C5,28.622482299804688 2.759500026702881,30.86298179626465 0,30.86298179626465 C0,30.86298179626465 0,30.86298179626465 0,30.86298179626465 C-2.759500026702881,30.86298179626465 -5,28.622482299804688 -5,25.86298179626465 C-5,25.86298179626465 -5,-25.86298179626465 -5,-25.86298179626465 C-5,-28.622482299804688 -2.759500026702881,-30.86298179626465 0,-30.86298179626465 C0,-30.86298179626465 0,-30.86298179626465 0,-30.86298179626465 C2.759500026702881,-30.86298179626465 5,-28.622482299804688 5,-25.86298179626465z"></path><path strokeLinecap="butt" strokeLinejoin="miter" fillOpacity="0" strokeMiterlimit="4" stroke="rgb(0,0,0)" strokeOpacity="1" strokeWidth="0" d=" M5,-25.86298179626465 C5,-25.86298179626465 5,25.86298179626465 5,25.86298179626465 C5,28.622482299804688 2.759500026702881,30.86298179626465 0,30.86298179626465 C0,30.86298179626465 0,30.86298179626465 0,30.86298179626465 C-2.759500026702881,30.86298179626465 -5,28.622482299804688 -5,25.86298179626465 C-5,25.86298179626465 -5,-25.86298179626465 -5,-25.86298179626465 C-5,-28.622482299804688 -2.759500026702881,-30.86298179626465 0,-30.86298179626465 C0,-30.86298179626465 0,-30.86298179626465 0,-30.86298179626465 C2.759500026702881,-30.86298179626465 5,-28.622482299804688 5,-25.86298179626465z"></path></g></g><g transform="matrix(0.38510000705718994,0,0,1,509.80926513671875,147.34500122070312)" opacity="0.2" style="display: block;"><g opacity="1" transform="matrix(1,0,0,1,-335.7309875488281,-4.84499979019165)"><path fill="rgb(255,255,255)" fillOpacity="1" d=" M5,-44.40671157836914 C5,-44.40671157836914 5,44.40671157836914 5,44.40671157836914 C5,47.16621017456055 2.759500026702881,49.40671157836914 0,49.40671157836914 C0,49.40671157836914 0,49.40671157836914 0,49.40671157836914 C-2.759500026702881,49.40671157836914 -5,47.16621017456055 -5,44.40671157836914 C-5,44.40671157836914 -5,-44.40671157836914 -5,-44.40671157836914 C-5,-47.16621017456055 -2.759500026702881,-49.40671157836914 0,-49.40671157836914 C0,-49.40671157836914 0,-49.40671157836914 0,-49.40671157836914 C2.759500026702881,-49.40671157836914 5,-47.16621017456055 5,-44.40671157836914z"></path><path strokeLinecap="butt" strokeLinejoin="miter" fillOpacity="0" strokeMiterlimit="4" stroke="rgb(0,0,0)" strokeOpacity="1" strokeWidth="0" d=" M5,-44.40671157836914 C5,-44.40671157836914 5,44.40671157836914 5,44.40671157836914 C5,47.16621017456055 2.759500026702881,49.40671157836914 0,49.40671157836914 C0,49.40671157836914 0,49.40671157836914 0,49.40671157836914 C-2.759500026702881,49.40671157836914 -5,47.16621017456055 -5,44.40671157836914 C-5,44.40671157836914 -5,-44.40671157836914 -5,-44.40671157836914 C-5,-47.16621017456055 -2.759500026702881,-49.40671157836914 0,-49.40671157836914 C0,-49.40671157836914 0,-49.40671157836914 0,-49.40671157836914 C2.759500026702881,-49.40671157836914 5,-47.16621017456055 5,-44.40671157836914z"></path></g></g><g transform="matrix(0.38510000705718994,0,0,1,528.6810913085938,147.34500122070312)" opacity="0.2" style="display: block;"><g opacity="1" transform="matrix(1,0,0,1,-335.7309875488281,-4.84499979019165)"><path fill="rgb(255,255,255)" fillOpacity="1" d=" M5,-17.823593139648438 C5,-17.823593139648438 5,17.823593139648438 5,17.823593139648438 C5,20.583093643188477 2.759500026702881,22.823593139648438 0,22.823593139648438 C0,22.823593139648438 0,22.823593139648438 0,22.823593139648438 C-2.759500026702881,22.823593139648438 -5,20.583093643188477 -5,17.823593139648438 C-5,17.823593139648438 -5,-17.823593139648438 -5,-17.823593139648438 C-5,-20.583093643188477 -2.759500026702881,-22.823593139648438 0,-22.823593139648438 C0,-22.823593139648438 0,-22.823593139648438 0,-22.823593139648438 C2.759500026702881,-22.823593139648438 5,-20.583093643188477 5,-17.823593139648438z"></path><path strokeLinecap="butt" strokeLinejoin="miter" fillOpacity="0" strokeMiterlimit="4" stroke="rgb(0,0,0)" strokeOpacity="1" strokeWidth="0" d=" M5,-17.823593139648438 C5,-17.823593139648438 5,17.823593139648438 5,17.823593139648438 C5,20.583093643188477 2.759500026702881,22.823593139648438 0,22.823593139648438 C0,22.823593139648438 0,22.823593139648438 0,22.823593139648438 C-2.759500026702881,22.823593139648438 -5,20.583093643188477 -5,17.823593139648438 C-5,17.823593139648438 -5,-17.823593139648438 -5,-17.823593139648438 C-5,-20.583093643188477 -2.759500026702881,-22.823593139648438 0,-22.823593139648438 C0,-22.823593139648438 0,-22.823593139648438 0,-22.823593139648438 C2.759500026702881,-22.823593139648438 5,-20.583093643188477 5,-17.823593139648438z"></path></g></g><g transform="matrix(0.38510000705718994,0,0,1,547.5521240234375,147.34500122070312)" opacity="0.2" style="display: block;"><g opacity="1" transform="matrix(1,0,0,1,-335.7309875488281,-4.84499979019165)"><path fill="rgb(255,255,255)" fillOpacity="1" d=" M5,-25.768213272094727 C5,-25.768213272094727 5,25.768213272094727 5,25.768213272094727 C5,28.527713775634766 2.759500026702881,30.768213272094727 0,30.768213272094727 C0,30.768213272094727 0,30.768213272094727 0,30.768213272094727 C-2.759500026702881,30.768213272094727 -5,28.527713775634766 -5,25.768213272094727 C-5,25.768213272094727 -5,-25.768213272094727 -5,-25.768213272094727 C-5,-28.527713775634766 -2.759500026702881,-30.768213272094727 0,-30.768213272094727 C0,-30.768213272094727 0,-30.768213272094727 0,-30.768213272094727 C2.759500026702881,-30.768213272094727 5,-28.527713775634766 5,-25.768213272094727z"></path><path strokeLinecap="butt" strokeLinejoin="miter" fillOpacity="0" strokeMiterlimit="4" stroke="rgb(0,0,0)" strokeOpacity="1" strokeWidth="0" d=" M5,-25.768213272094727 C5,-25.768213272094727 5,25.768213272094727 5,25.768213272094727 C5,28.527713775634766 2.759500026702881,30.768213272094727 0,30.768213272094727 C0,30.768213272094727 0,30.768213272094727 0,30.768213272094727 C-2.759500026702881,30.768213272094727 -5,28.527713775634766 -5,25.768213272094727 C-5,25.768213272094727 -5,-25.768213272094727 -5,-25.768213272094727 C-5,-28.527713775634766 -2.759500026702881,-30.768213272094727 0,-30.768213272094727 C0,-30.768213272094727 0,-30.768213272094727 0,-30.768213272094727 C2.759500026702881,-30.768213272094727 5,-28.527713775634766 5,-25.768213272094727z"></path></g></g><g transform="matrix(0.38510000705718994,0,0,1,566.4227905273438,147.34500122070312)" opacity="0.2" style="display: block;"><g opacity="1" transform="matrix(1,0,0,1,-335.7309875488281,-4.84499979019165)"><path fill="rgb(255,255,255)" fillOpacity="1" d=" M5,-38.707008361816406 C5,-38.707008361816406 5,38.707008361816406 5,38.707008361816406 C5,41.46650695800781 2.759500026702881,43.707008361816406 0,43.707008361816406 C0,43.707008361816406 0,43.707008361816406 0,43.707008361816406 C-2.759500026702881,43.707008361816406 -5,41.46650695800781 -5,38.707008361816406 C-5,38.707008361816406 -5,-38.707008361816406 -5,-38.707008361816406 C-5,-41.46650695800781 -2.759500026702881,-43.707008361816406 0,-43.707008361816406 C0,-43.707008361816406 0,-43.707008361816406 0,-43.707008361816406 C2.759500026702881,-43.707008361816406 5,-41.46650695800781 5,-38.707008361816406z"></path><path strokeLinecap="butt" strokeLinejoin="miter" fillOpacity="0" strokeMiterlimit="4" stroke="rgb(0,0,0)" strokeOpacity="1" strokeWidth="0" d=" M5,-38.707008361816406 C5,-38.707008361816406 5,38.707008361816406 5,38.707008361816406 C5,41.46650695800781 2.759500026702881,43.707008361816406 0,43.707008361816406 C0,43.707008361816406 0,43.707008361816406 0,43.707008361816406 C-2.759500026702881,43.707008361816406 -5,41.46650695800781 -5,38.707008361816406 C-5,38.707008361816406 -5,-38.707008361816406 -5,-38.707008361816406 C-5,-41.46650695800781 -2.759500026702881,-43.707008361816406 0,-43.707008361816406 C0,-43.707008361816406 0,-43.707008361816406 0,-43.707008361816406 C2.759500026702881,-43.707008361816406 5,-41.46650695800781 5,-38.707008361816406z"></path></g></g><g transform="matrix(0.38510000705718994,0,0,1,585.2946166992188,147.34500122070312)" opacity="0.2" style="display: block;"><g opacity="1" transform="matrix(1,0,0,1,-335.7309875488281,-4.84499979019165)"><path fill="rgb(255,255,255)" fillOpacity="1" d=" M5,-13.23613166809082 C5,-13.23613166809082 5,13.23613166809082 5,13.23613166809082 C5,15.995631217956543 2.759500026702881,18.23613166809082 0,18.23613166809082 C0,18.23613166809082 0,18.23613166809082 0,18.23613166809082 C-2.759500026702881,18.23613166809082 -5,15.995631217956543 -5,13.23613166809082 C-5,13.23613166809082 -5,-13.23613166809082 -5,-13.23613166809082 C-5,-15.995631217956543 -2.759500026702881,-18.23613166809082 0,-18.23613166809082 C0,-18.23613166809082 0,-18.23613166809082 0,-18.23613166809082 C2.759500026702881,-18.23613166809082 5,-15.995631217956543 5,-13.23613166809082z"></path><path strokeLinecap="butt" strokeLinejoin="miter" fillOpacity="0" strokeMiterlimit="4" stroke="rgb(0,0,0)" strokeOpacity="1" strokeWidth="0" d=" M5,-13.23613166809082 C5,-13.23613166809082 5,13.23613166809082 5,13.23613166809082 C5,15.995631217956543 2.759500026702881,18.23613166809082 0,18.23613166809082 C0,18.23613166809082 0,18.23613166809082 0,18.23613166809082 C-2.759500026702881,18.23613166809082 -5,15.995631217956543 -5,13.23613166809082 C-5,13.23613166809082 -5,-13.23613166809082 -5,-13.23613166809082 C-5,-15.995631217956543 -2.759500026702881,-18.23613166809082 0,-18.23613166809082 C0,-18.23613166809082 0,-18.23613166809082 0,-18.23613166809082 C2.759500026702881,-18.23613166809082 5,-15.995631217956543 5,-13.23613166809082z"></path></g></g><g transform="matrix(0.38510000705718994,0,0,1,604.1657104492188,147.34500122070312)" opacity="0.2" style="display: block;"><g opacity="1" transform="matrix(1,0,0,1,-335.7309875488281,-4.84499979019165)"><path fill="rgb(255,255,255)" fillOpacity="1" d=" M5,-24.524778366088867 C5,-24.524778366088867 5,24.524778366088867 5,24.524778366088867 C5,27.284278869628906 2.759500026702881,29.524778366088867 0,29.524778366088867 C0,29.524778366088867 0,29.524778366088867 0,29.524778366088867 C-2.759500026702881,29.524778366088867 -5,27.284278869628906 -5,24.524778366088867 C-5,24.524778366088867 -5,-24.524778366088867 -5,-24.524778366088867 C-5,-27.284278869628906 -2.759500026702881,-29.524778366088867 0,-29.524778366088867 C0,-29.524778366088867 0,-29.524778366088867 0,-29.524778366088867 C2.759500026702881,-29.524778366088867 5,-27.284278869628906 5,-24.524778366088867z"></path><path strokeLinecap="butt" strokeLinejoin="miter" fillOpacity="0" strokeMiterlimit="4" stroke="rgb(0,0,0)" strokeOpacity="1" strokeWidth="0" d=" M5,-24.524778366088867 C5,-24.524778366088867 5,24.524778366088867 5,24.524778366088867 C5,27.284278869628906 2.759500026702881,29.524778366088867 0,29.524778366088867 C0,29.524778366088867 0,29.524778366088867 0,29.524778366088867 C-2.759500026702881,29.524778366088867 -5,27.284278869628906 -5,24.524778366088867 C-5,24.524778366088867 -5,-24.524778366088867 -5,-24.524778366088867 C-5,-27.284278869628906 -2.759500026702881,-29.524778366088867 0,-29.524778366088867 C0,-29.524778366088867 0,-29.524778366088867 0,-29.524778366088867 C2.759500026702881,-29.524778366088867 5,-27.284278869628906 5,-24.524778366088867z"></path></g></g><g transform="matrix(0.38510000705718994,0,0,1,623.0375366210938,147.34500122070312)" opacity="0.2" style="display: block;"><g opacity="1" transform="matrix(1,0,0,1,-335.7309875488281,-4.84499979019165)"><path fill="rgb(255,255,255)" fillOpacity="1" d=" M5,-36.48104476928711 C5,-36.48104476928711 5,36.48104476928711 5,36.48104476928711 C5,39.240543365478516 2.759500026702881,41.48104476928711 0,41.48104476928711 C0,41.48104476928711 0,41.48104476928711 0,41.48104476928711 C-2.759500026702881,41.48104476928711 -5,39.240543365478516 -5,36.48104476928711 C-5,36.48104476928711 -5,-36.48104476928711 -5,-36.48104476928711 C-5,-39.240543365478516 -2.759500026702881,-41.48104476928711 0,-41.48104476928711 C0,-41.48104476928711 0,-41.48104476928711 0,-41.48104476928711 C2.759500026702881,-41.48104476928711 5,-39.240543365478516 5,-36.48104476928711z"></path><path strokeLinecap="butt" strokeLinejoin="miter" fillOpacity="0" strokeMiterlimit="4" stroke="rgb(0,0,0)" strokeOpacity="1" strokeWidth="0" d=" M5,-36.48104476928711 C5,-36.48104476928711 5,36.48104476928711 5,36.48104476928711 C5,39.240543365478516 2.759500026702881,41.48104476928711 0,41.48104476928711 C0,41.48104476928711 0,41.48104476928711 0,41.48104476928711 C-2.759500026702881,41.48104476928711 -5,39.240543365478516 -5,36.48104476928711 C-5,36.48104476928711 -5,-36.48104476928711 -5,-36.48104476928711 C-5,-39.240543365478516 -2.759500026702881,-41.48104476928711 0,-41.48104476928711 C0,-41.48104476928711 0,-41.48104476928711 0,-41.48104476928711 C2.759500026702881,-41.48104476928711 5,-39.240543365478516 5,-36.48104476928711z"></path></g></g><g transform="matrix(0.38510000705718994,0,0,1,641.908203125,147.34500122070312)" opacity="0.2" style="display: block;"><g opacity="1" transform="matrix(1,0,0,1,-335.7309875488281,-4.84499979019165)"><path fill="rgb(255,255,255)" fillOpacity="1" d=" M5,-21.16910171508789 C5,-21.16910171508789 5,21.16910171508789 5,21.16910171508789 C5,23.92860221862793 2.759500026702881,26.16910171508789 0,26.16910171508789 C0,26.16910171508789 0,26.16910171508789 0,26.16910171508789 C-2.759500026702881,26.16910171508789 -5,23.92860221862793 -5,21.16910171508789 C-5,21.16910171508789 -5,-21.16910171508789 -5,-21.16910171508789 C-5,-23.92860221862793 -2.759500026702881,-26.16910171508789 0,-26.16910171508789 C0,-26.16910171508789 0,-26.16910171508789 0,-26.16910171508789 C2.759500026702881,-26.16910171508789 5,-23.92860221862793 5,-21.16910171508789z"></path><path strokeLinecap="butt" strokeLinejoin="miter" fillOpacity="0" strokeMiterlimit="4" stroke="rgb(0,0,0)" strokeOpacity="1" strokeWidth="0" d=" M5,-21.16910171508789 C5,-21.16910171508789 5,21.16910171508789 5,21.16910171508789 C5,23.92860221862793 2.759500026702881,26.16910171508789 0,26.16910171508789 C0,26.16910171508789 0,26.16910171508789 0,26.16910171508789 C-2.759500026702881,26.16910171508789 -5,23.92860221862793 -5,21.16910171508789 C-5,21.16910171508789 -5,-21.16910171508789 -5,-21.16910171508789 C-5,-23.92860221862793 -2.759500026702881,-26.16910171508789 0,-26.16910171508789 C0,-26.16910171508789 0,-26.16910171508789 0,-26.16910171508789 C2.759500026702881,-26.16910171508789 5,-23.92860221862793 5,-21.16910171508789z"></path></g></g><g transform="matrix(0.38510000705718994,0,0,1,660.780029296875,147.34500122070312)" opacity="0.2" style="display: block;"><g opacity="1" transform="matrix(1,0,0,1,-335.7309875488281,-4.84499979019165)"><path fill="rgb(255,255,255)" fillOpacity="1" d=" M5,-41.188053131103516 C5,-41.188053131103516 5,41.188053131103516 5,41.188053131103516 C5,43.94755172729492 2.759500026702881,46.188053131103516 0,46.188053131103516 C0,46.188053131103516 0,46.188053131103516 0,46.188053131103516 C-2.759500026702881,46.188053131103516 -5,43.94755172729492 -5,41.188053131103516 C-5,41.188053131103516 -5,-41.188053131103516 -5,-41.188053131103516 C-5,-43.94755172729492 -2.759500026702881,-46.188053131103516 0,-46.188053131103516 C0,-46.188053131103516 0,-46.188053131103516 0,-46.188053131103516 C2.759500026702881,-46.188053131103516 5,-43.94755172729492 5,-41.188053131103516z"></path><path strokeLinecap="butt" strokeLinejoin="miter" fillOpacity="0" strokeMiterlimit="4" stroke="rgb(0,0,0)" strokeOpacity="1" strokeWidth="0" d=" M5,-41.188053131103516 C5,-41.188053131103516 5,41.188053131103516 5,41.188053131103516 C5,43.94755172729492 2.759500026702881,46.188053131103516 0,46.188053131103516 C0,46.188053131103516 0,46.188053131103516 0,46.188053131103516 C-2.759500026702881,46.188053131103516 -5,43.94755172729492 -5,41.188053131103516 C-5,41.188053131103516 -5,-41.188053131103516 -5,-41.188053131103516 C-5,-43.94755172729492 -2.759500026702881,-46.188053131103516 0,-46.188053131103516 C0,-46.188053131103516 0,-46.188053131103516 0,-46.188053131103516 C2.759500026702881,-46.188053131103516 5,-43.94755172729492 5,-41.188053131103516z"></path></g></g><g transform="matrix(0.38510000705718994,0,0,1,679.6510620117188,147.34500122070312)" opacity="0.2" style="display: block;"><g opacity="1" transform="matrix(1,0,0,1,-335.7309875488281,-4.84499979019165)"><path fill="rgb(255,255,255)" fillOpacity="1" d=" M5,-11.104936599731445 C5,-11.104936599731445 5,11.104936599731445 5,11.104936599731445 C5,13.864436149597168 2.759500026702881,16.104936599731445 0,16.104936599731445 C0,16.104936599731445 0,16.104936599731445 0,16.104936599731445 C-2.759500026702881,16.104936599731445 -5,13.864436149597168 -5,11.104936599731445 C-5,11.104936599731445 -5,-11.104936599731445 -5,-11.104936599731445 C-5,-13.864436149597168 -2.759500026702881,-16.104936599731445 0,-16.104936599731445 C0,-16.104936599731445 0,-16.104936599731445 0,-16.104936599731445 C2.759500026702881,-16.104936599731445 5,-13.864436149597168 5,-11.104936599731445z"></path><path strokeLinecap="butt" strokeLinejoin="miter" fillOpacity="0" strokeMiterlimit="4" stroke="rgb(0,0,0)" strokeOpacity="1" strokeWidth="0" d=" M5,-11.104936599731445 C5,-11.104936599731445 5,11.104936599731445 5,11.104936599731445 C5,13.864436149597168 2.759500026702881,16.104936599731445 0,16.104936599731445 C0,16.104936599731445 0,16.104936599731445 0,16.104936599731445 C-2.759500026702881,16.104936599731445 -5,13.864436149597168 -5,11.104936599731445 C-5,11.104936599731445 -5,-11.104936599731445 -5,-11.104936599731445 C-5,-13.864436149597168 -2.759500026702881,-16.104936599731445 0,-16.104936599731445 C0,-16.104936599731445 0,-16.104936599731445 0,-16.104936599731445 C2.759500026702881,-16.104936599731445 5,-13.864436149597168 5,-11.104936599731445z"></path></g></g><g transform="matrix(0.38510000705718994,0,0,1,698.521728515625,147.34500122070312)" opacity="0.2" style="display: block;"><g opacity="1" transform="matrix(1,0,0,1,-335.7309875488281,-4.84499979019165)"><path fill="rgb(255,255,255)" fillOpacity="1" d=" M5,-26.86298179626465 C5,-26.86298179626465 5,26.86298179626465 5,26.86298179626465 C5,29.622482299804688 2.759500026702881,31.86298179626465 0,31.86298179626465 C0,31.86298179626465 0,31.86298179626465 0,31.86298179626465 C-2.759500026702881,31.86298179626465 -5,29.622482299804688 -5,26.86298179626465 C-5,26.86298179626465 -5,-26.86298179626465 -5,-26.86298179626465 C-5,-29.622482299804688 -2.759500026702881,-31.86298179626465 0,-31.86298179626465 C0,-31.86298179626465 0,-31.86298179626465 0,-31.86298179626465 C2.759500026702881,-31.86298179626465 5,-29.622482299804688 5,-26.86298179626465z"></path><path strokeLinecap="butt" strokeLinejoin="miter" fillOpacity="0" strokeMiterlimit="4" stroke="rgb(0,0,0)" strokeOpacity="1" strokeWidth="0" d=" M5,-26.86298179626465 C5,-26.86298179626465 5,26.86298179626465 5,26.86298179626465 C5,29.622482299804688 2.759500026702881,31.86298179626465 0,31.86298179626465 C0,31.86298179626465 0,31.86298179626465 0,31.86298179626465 C-2.759500026702881,31.86298179626465 -5,29.622482299804688 -5,26.86298179626465 C-5,26.86298179626465 -5,-26.86298179626465 -5,-26.86298179626465 C-5,-29.622482299804688 -2.759500026702881,-31.86298179626465 0,-31.86298179626465 C0,-31.86298179626465 0,-31.86298179626465 0,-31.86298179626465 C2.759500026702881,-31.86298179626465 5,-29.622482299804688 5,-26.86298179626465z"></path></g></g><g transform="matrix(0.38510000705718994,0,0,1,717.3935546875,147.34500122070312)" opacity="0.2" style="display: block;"><g opacity="1" transform="matrix(1,0,0,1,-335.7309875488281,-4.84499979019165)"><path fill="rgb(255,255,255)" fillOpacity="1" d=" M5,-44.688053131103516 C5,-44.688053131103516 5,44.688053131103516 5,44.688053131103516 C5,47.44755172729492 2.759500026702881,49.688053131103516 0,49.688053131103516 C0,49.688053131103516 0,49.688053131103516 0,49.688053131103516 C-2.759500026702881,49.688053131103516 -5,47.44755172729492 -5,44.688053131103516 C-5,44.688053131103516 -5,-44.688053131103516 -5,-44.688053131103516 C-5,-47.44755172729492 -2.759500026702881,-49.688053131103516 0,-49.688053131103516 C0,-49.688053131103516 0,-49.688053131103516 0,-49.688053131103516 C2.759500026702881,-49.688053131103516 5,-47.44755172729492 5,-44.688053131103516z"></path><path strokeLinecap="butt" strokeLinejoin="miter" fillOpacity="0" strokeMiterlimit="4" stroke="rgb(0,0,0)" strokeOpacity="1" strokeWidth="0" d=" M5,-44.688053131103516 C5,-44.688053131103516 5,44.688053131103516 5,44.688053131103516 C5,47.44755172729492 2.759500026702881,49.688053131103516 0,49.688053131103516 C0,49.688053131103516 0,49.688053131103516 0,49.688053131103516 C-2.759500026702881,49.688053131103516 -5,47.44755172729492 -5,44.688053131103516 C-5,44.688053131103516 -5,-44.688053131103516 -5,-44.688053131103516 C-5,-47.44755172729492 -2.759500026702881,-49.688053131103516 0,-49.688053131103516 C0,-49.688053131103516 0,-49.688053131103516 0,-49.688053131103516 C2.759500026702881,-49.688053131103516 5,-47.44755172729492 5,-44.688053131103516z"></path></g></g><g transform="matrix(0.38510000705718994,0,0,1,736.2646484375,147.34500122070312)" opacity="0.2" style="display: block;"><g opacity="1" transform="matrix(1,0,0,1,-335.7309875488281,-4.84499979019165)"><path fill="rgb(255,255,255)" fillOpacity="1" d=" M5,-19.517473220825195 C5,-19.517473220825195 5,19.517473220825195 5,19.517473220825195 C5,22.276973724365234 2.759500026702881,24.517473220825195 0,24.517473220825195 C0,24.517473220825195 0,24.517473220825195 0,24.517473220825195 C-2.759500026702881,24.517473220825195 -5,22.276973724365234 -5,19.517473220825195 C-5,19.517473220825195 -5,-19.517473220825195 -5,-19.517473220825195 C-5,-22.276973724365234 -2.759500026702881,-24.517473220825195 0,-24.517473220825195 C0,-24.517473220825195 0,-24.517473220825195 0,-24.517473220825195 C2.759500026702881,-24.517473220825195 5,-22.276973724365234 5,-19.517473220825195z"></path><path strokeLinecap="butt" strokeLinejoin="miter" fillOpacity="0" strokeMiterlimit="4" stroke="rgb(0,0,0)" strokeOpacity="1" strokeWidth="0" d=" M5,-19.517473220825195 C5,-19.517473220825195 5,19.517473220825195 5,19.517473220825195 C5,22.276973724365234 2.759500026702881,24.517473220825195 0,24.517473220825195 C0,24.517473220825195 0,24.517473220825195 0,24.517473220825195 C-2.759500026702881,24.517473220825195 -5,22.276973724365234 -5,19.517473220825195 C-5,19.517473220825195 -5,-19.517473220825195 -5,-19.517473220825195 C-5,-22.276973724365234 -2.759500026702881,-24.517473220825195 0,-24.517473220825195 C0,-24.517473220825195 0,-24.517473220825195 0,-24.517473220825195 C2.759500026702881,-24.517473220825195 5,-22.276973724365234 5,-19.517473220825195z"></path></g></g><g transform="matrix(0.38510000705718994,0,0,1,755.136474609375,147.34500122070312)" opacity="0.2" style="display: block;"><g opacity="1" transform="matrix(1,0,0,1,-335.7309875488281,-4.84499979019165)"><path fill="rgb(255,255,255)" fillOpacity="1" d=" M5,-32.881935119628906 C5,-32.881935119628906 5,32.881935119628906 5,32.881935119628906 C5,35.64143371582031 2.759500026702881,37.881935119628906 0,37.881935119628906 C0,37.881935119628906 0,37.881935119628906 0,37.881935119628906 C-2.759500026702881,37.881935119628906 -5,35.64143371582031 -5,32.881935119628906 C-5,32.881935119628906 -5,-32.881935119628906 -5,-32.881935119628906 C-5,-35.64143371582031 -2.759500026702881,-37.881935119628906 0,-37.881935119628906 C0,-37.881935119628906 0,-37.881935119628906 0,-37.881935119628906 C2.759500026702881,-37.881935119628906 5,-35.64143371582031 5,-32.881935119628906z"></path><path strokeLinecap="butt" strokeLinejoin="miter" fillOpacity="0" strokeMiterlimit="4" stroke="rgb(0,0,0)" strokeOpacity="1" strokeWidth="0" d=" M5,-32.881935119628906 C5,-32.881935119628906 5,32.881935119628906 5,32.881935119628906 C5,35.64143371582031 2.759500026702881,37.881935119628906 0,37.881935119628906 C0,37.881935119628906 0,37.881935119628906 0,37.881935119628906 C-2.759500026702881,37.881935119628906 -5,35.64143371582031 -5,32.881935119628906 C-5,32.881935119628906 -5,-32.881935119628906 -5,-32.881935119628906 C-5,-35.64143371582031 -2.759500026702881,-37.881935119628906 0,-37.881935119628906 C0,-37.881935119628906 0,-37.881935119628906 0,-37.881935119628906 C2.759500026702881,-37.881935119628906 5,-35.64143371582031 5,-32.881935119628906z"></path></g></g><g transform="matrix(0.38510000705718994,0,0,1,774.0071411132812,147.34500122070312)" opacity="0.2" style="display: block;"><g opacity="1" transform="matrix(1,0,0,1,-335.7309875488281,-4.84499979019165)"><path fill="rgb(255,255,255)" fillOpacity="1" d=" M5,-24.762388229370117 C5,-24.762388229370117 5,24.762388229370117 5,24.762388229370117 C5,27.521888732910156 2.759500026702881,29.762388229370117 0,29.762388229370117 C0,29.762388229370117 0,29.762388229370117 0,29.762388229370117 C-2.759500026702881,29.762388229370117 -5,27.521888732910156 -5,24.762388229370117 C-5,24.762388229370117 -5,-24.762388229370117 -5,-24.762388229370117 C-5,-27.521888732910156 -2.759500026702881,-29.762388229370117 0,-29.762388229370117 C0,-29.762388229370117 0,-29.762388229370117 0,-29.762388229370117 C2.759500026702881,-29.762388229370117 5,-27.521888732910156 5,-24.762388229370117z"></path><path strokeLinecap="butt" strokeLinejoin="miter" fillOpacity="0" strokeMiterlimit="4" stroke="rgb(0,0,0)" strokeOpacity="1" strokeWidth="0" d=" M5,-24.762388229370117 C5,-24.762388229370117 5,24.762388229370117 5,24.762388229370117 C5,27.521888732910156 2.759500026702881,29.762388229370117 0,29.762388229370117 C0,29.762388229370117 0,29.762388229370117 0,29.762388229370117 C-2.759500026702881,29.762388229370117 -5,27.521888732910156 -5,24.762388229370117 C-5,24.762388229370117 -5,-24.762388229370117 -5,-24.762388229370117 C-5,-27.521888732910156 -2.759500026702881,-29.762388229370117 0,-29.762388229370117 C0,-29.762388229370117 0,-29.762388229370117 0,-29.762388229370117 C2.759500026702881,-29.762388229370117 5,-27.521888732910156 5,-24.762388229370117z"></path></g></g><g transform="matrix(0.38510000705718994,0,0,1,792.8793334960938,147.34500122070312)" opacity="0.2" style="display: block;"><g opacity="1" transform="matrix(1,0,0,1,-335.7309875488281,-4.84499979019165)"><path fill="rgb(255,255,255)" fillOpacity="1" d=" M5,-9.956268310546875 C5,-9.956268310546875 5,9.956268310546875 5,9.956268310546875 C5,12.715767860412598 2.759500026702881,14.956268310546875 0,14.956268310546875 C0,14.956268310546875 0,14.956268310546875 0,14.956268310546875 C-2.759500026702881,14.956268310546875 -5,12.715767860412598 -5,9.956268310546875 C-5,9.956268310546875 -5,-9.956268310546875 -5,-9.956268310546875 C-5,-12.715767860412598 -2.759500026702881,-14.956268310546875 0,-14.956268310546875 C0,-14.956268310546875 0,-14.956268310546875 0,-14.956268310546875 C2.759500026702881,-14.956268310546875 5,-12.715767860412598 5,-9.956268310546875z"></path><path strokeLinecap="butt" strokeLinejoin="miter" fillOpacity="0" strokeMiterlimit="4" stroke="rgb(0,0,0)" strokeOpacity="1" strokeWidth="0" d=" M5,-9.956268310546875 C5,-9.956268310546875 5,9.956268310546875 5,9.956268310546875 C5,12.715767860412598 2.759500026702881,14.956268310546875 0,14.956268310546875 C0,14.956268310546875 0,14.956268310546875 0,14.956268310546875 C-2.759500026702881,14.956268310546875 -5,12.715767860412598 -5,9.956268310546875 C-5,9.956268310546875 -5,-9.956268310546875 -5,-9.956268310546875 C-5,-12.715767860412598 -2.759500026702881,-14.956268310546875 0,-14.956268310546875 C0,-14.956268310546875 0,-14.956268310546875 0,-14.956268310546875 C2.759500026702881,-14.956268310546875 5,-12.715767860412598 5,-9.956268310546875z"></path></g></g><g transform="matrix(0.38510000705718994,0,0,1,811.75,147.34500122070312)" opacity="0.2" style="display: block;"><g opacity="1" transform="matrix(1,0,0,1,-335.7309875488281,-4.84499979019165)"><path fill="rgb(255,255,255)" fillOpacity="1" d=" M5,-2.986870765686035 C5,-2.986870765686035 5,2.986870765686035 5,2.986870765686035 C5,5.746370792388916 2.759500026702881,7.986870765686035 0,7.986870765686035 C0,7.986870765686035 0,7.986870765686035 0,7.986870765686035 C-2.759500026702881,7.986870765686035 -5,5.746370792388916 -5,2.986870765686035 C-5,2.986870765686035 -5,-2.986870765686035 -5,-2.986870765686035 C-5,-5.746370792388916 -2.759500026702881,-7.986870765686035 0,-7.986870765686035 C0,-7.986870765686035 0,-7.986870765686035 0,-7.986870765686035 C2.759500026702881,-7.986870765686035 5,-5.746370792388916 5,-2.986870765686035z"></path><path strokeLinecap="butt" strokeLinejoin="miter" fillOpacity="0" strokeMiterlimit="4" stroke="rgb(0,0,0)" strokeOpacity="1" strokeWidth="0" d=" M5,-2.986870765686035 C5,-2.986870765686035 5,2.986870765686035 5,2.986870765686035 C5,5.746370792388916 2.759500026702881,7.986870765686035 0,7.986870765686035 C0,7.986870765686035 0,7.986870765686035 0,7.986870765686035 C-2.759500026702881,7.986870765686035 -5,5.746370792388916 -5,2.986870765686035 C-5,2.986870765686035 -5,-2.986870765686035 -5,-2.986870765686035 C-5,-5.746370792388916 -2.759500026702881,-7.986870765686035 0,-7.986870765686035 C0,-7.986870765686035 0,-7.986870765686035 0,-7.986870765686035 C2.759500026702881,-7.986870765686035 5,-5.746370792388916 5,-2.986870765686035z"></path></g></g></g></g></svg>